<?xml version="1.0" encoding="utf-8"?>
<!-- Generator: Adobe Illustrator 27.0.1, SVG Export Plug-In . SVG Version: 6.00 Build 0)  -->
<svg version="1.1" id="Layer_1" xmlns="http://www.w3.org/2000/svg" xmlns:xlink="http://www.w3.org/1999/xlink" x="0px" y="0px"
	 viewBox="0 0 1365.5 434" style="enable-background:new 0 0 1365.5 434;" xml:space="preserve">
<style type="text/css">
	.st0{opacity:0.1;clip-path:url(#SVGID_00000136373979212593242890000004898770727358026174_);}
	.st1{clip-path:url(#SVGID_00000170963596889527941320000000659725075979207594_);}
	.st2{fill:#2F4CFE;}
	.st3{fill:#304AFD;}
	.st4{fill:#3349FC;}
	.st5{fill:#3547FB;}
	.st6{fill:#3745F9;}
	.st7{fill:#3A43F8;}
	.st8{fill:#3D41F6;}
	.st9{fill:#3F3FF4;}
	.st10{fill:#433DF3;}
	.st11{fill:#463BF2;}
	.st12{fill:#493AF0;}
	.st13{fill:#4C37EF;}
	.st14{fill:#5036EE;}
	.st15{fill:#5334EC;}
	.st16{fill:#5632EB;}
	.st17{fill:#5A30EA;}
	.st18{fill:#5D2FE8;}
	.st19{fill:#602CE7;}
	.st20{fill:#632AE5;}
	.st21{fill:#6728E4;}
	.st22{fill:#6A26E3;}
	.st23{fill:#6E25E1;}
	.st24{fill:#7224E0;}
	.st25{fill:#7621DF;}
	.st26{fill:#791FDD;}
	.st27{fill:#7D1DDC;}
	.st28{fill:#811CDB;}
	.st29{fill:#8419D9;}
	.st30{fill:#8817D8;}
	.st31{fill:#8C15D7;}
	.st32{fill:#8F13D5;}
	.st33{fill:#9311D4;}
	.st34{fill:#970FD3;}
	.st35{fill:#9B0FD0;}
	.st36{fill:#9E0CCF;}
	.st37{fill:#A209CE;}
	.st38{fill:#A606CC;}
</style>
<g>
	<defs>
		<rect id="SVGID_1_" width="1365.5" height="434"/>
	</defs>
	<clipPath id="SVGID_00000075127820990657687980000006353417730086399929_">
		<use xlink:href="#SVGID_1_"  style="overflow:visible;"/>
	</clipPath>
	<g id="Mask_Group_6" style="opacity:0.1;clip-path:url(#SVGID_00000075127820990657687980000006353417730086399929_);">
		<g id="Group_2680" transform="translate(-297.24 60.5)">
			<g>
				<defs>
					<rect id="SVGID_00000024722666935142836820000009589969209715348353_" x="0" width="2005.9" height="381.3"/>
				</defs>
				<clipPath id="SVGID_00000082326303525542485090000002908836566560228274_">
					<use xlink:href="#SVGID_00000024722666935142836820000009589969209715348353_"  style="overflow:visible;"/>
				</clipPath>
				<g id="Group_2679" style="clip-path:url(#SVGID_00000082326303525542485090000002908836566560228274_);">
					<path id="Path_1023" class="st2" d="M870.6,68.2c-0.9,0-1.7-0.3-1.9-0.8c-0.2-0.5,0.5-1.1,1.5-1.2c15.2-1.5,30.6-3.8,45.7-6.8
						c0.9-0.2,1.8,0,2.5,0.6c0.4,0.5-0.1,1.1-1.1,1.3c-15.3,3.1-30.8,5.4-46.4,6.9C870.8,68.2,870.7,68.2,870.6,68.2"/>
					<path id="Path_1024" class="st3" d="M859.4,84.3c-1,0-1.8-0.4-1.9-0.9c-0.1-0.6,0.7-1,1.7-1.1c30.1-1.7,60-6.4,89.2-14
						c0.9-0.3,1.8-0.1,2.6,0.5c0.5,0.5,0.1,1.1-0.9,1.4c-29.6,7.7-59.9,12.4-90.5,14.2C859.6,84.3,859.5,84.3,859.4,84.3"/>
					<path id="Path_1025" class="st4" d="M843.2,99.8c-1.2,0-2.3-0.4-2.3-1c0-0.6,0.9-1,1.9-1h0.3c41.9,0,85.8-6.5,130.6-19.5
						c0.9-0.3,1.9-0.1,2.6,0.4c0.5,0.5,0.2,1.1-0.8,1.4C930.4,93.1,885.8,99.8,843.2,99.8"/>
					<path id="Path_1026" class="st4" d="M1034.6,59.2c-0.5,0-1.1-0.1-1.5-0.4c-0.7-0.4-0.5-1.1,0.3-1.4
						c24.1-9.9,47.7-20.9,70.7-33.2c0.9-0.4,1.9-0.4,2.7,0c0.8,0.4,0.8,1,0,1.4c-23.1,12.3-46.9,23.4-71.1,33.4
						C1035.5,59.1,1035,59.2,1034.6,59.2"/>
					<path id="Path_1027" class="st5" d="M851.1,114.5c-8.6,0-17.2-0.3-25.7-0.8c-1.1-0.1-1.8-0.6-1.7-1.1s1-1,2.1-0.9
						c100.9,6.2,206.9-24.8,324.2-94.9c0.8-0.4,1.8-0.5,2.7-0.1c0.8,0.4,0.9,1,0.2,1.4C1044.6,82.9,945.5,114.5,851.1,114.5"/>
					<path id="Path_1028" class="st6" d="M857.9,129.3c-17.3,0-34.7-1.1-51.9-3.2c-1-0.1-1.7-0.7-1.4-1.2s1.3-0.9,2.3-0.7
						c115.7,14.4,237.8-20.6,373.3-107.3c0.8-0.4,1.8-0.5,2.7-0.1c0.8,0.4,0.9,1,0.3,1.4C1066.7,92.7,959.7,129.3,857.9,129.3"/>
					<path id="Path_1029" class="st7" d="M864.6,144c-28.2,0-56.4-2.8-84-8.4c-1-0.2-1.5-0.8-1.1-1.3c0.7-0.6,1.6-0.8,2.5-0.6
						c130,26.2,266.5-9.9,417.5-110.4c1.1-0.7,2.2-1.4,3.3-2.1c1-0.7,2.1-1.3,3.1-2c0.8-0.4,1.8-0.5,2.7-0.1c0.8,0.4,0.9,1,0.2,1.4
						c-1,0.6-2.1,1.3-3.1,2c-1.1,0.7-2.2,1.4-3.3,2.1C1082.3,104.6,970.9,144,864.6,144"/>
					<path id="Path_1030" class="st8" d="M873,159.1c-42.1-0.1-83.9-6.1-124.3-17.9c-0.9-0.3-1.3-0.9-0.8-1.4
						c0.8-0.5,1.7-0.7,2.6-0.4c146.3,42,292,9.1,458.7-103.5c6.2-4.2,12.3-8.2,18.3-12.3l1-0.7c0.8-0.5,1.8-0.5,2.7-0.2
						c0.8,0.3,1,1,0.3,1.4l-1,0.7c-6,4-12.1,8-18.3,12.2C1091.1,119.1,980.7,159.1,873,159.1"/>
					<path id="Path_1031" class="st9" d="M879.7,174c-55.9,0-111.7-10.8-169.2-32.7c-0.9-0.3-1.1-1-0.4-1.4c0.8-0.5,1.8-0.5,2.7-0.2
						c75.5,28.7,148,38.1,221.6,28.8c90.7-11.5,183.8-50.8,284.7-120l4-2.7c9-6.1,17.9-12.2,26.8-18c0.8-0.4,1.8-0.5,2.7-0.2
						c0.8,0.3,1,1,0.3,1.4c-8.9,5.9-17.8,11.9-26.8,18l-4,2.7c-101.4,69.7-195.2,109.2-286.8,120.8C916.9,172.9,898.3,174,879.7,174
						"/>
					<path id="Path_1032" class="st10" d="M886.1,189.1c-71.8,0-142.6-17.5-221-54.5c-0.8-0.4-0.9-1-0.1-1.4
						c0.9-0.4,1.8-0.4,2.7-0.1c85.8,40.4,162.4,57.4,240.7,53.4c102.3-5.2,207.1-46.2,320.5-125.4c12.4-8.7,25.8-17.9,41.1-28
						c0.8-0.5,1.8-0.5,2.7-0.2c0.8,0.3,1,1,0.3,1.4c-15.2,10.1-28.6,19.3-41,28c-114.1,79.6-219.8,120.9-323.2,126.2
						C901.2,188.9,893.6,189.1,886.1,189.1"/>
					<path id="Path_1033" class="st11" d="M893.5,204.1c-108.9,0-199.6-40.7-267.3-76.8c-0.8-0.4-0.7-1,0-1.4c0.9-0.4,1.9-0.4,2.7,0
						c70.4,37.5,165.8,80,280.3,75.9c105.6-3.9,213.3-45.8,329.4-128.1c14.8-10.6,30.9-21.7,50.5-34.9c0.8-0.5,1.8-0.5,2.7-0.2
						c0.8,0.3,1,1,0.3,1.4c-19.6,13.2-35.6,24.2-50.4,34.9c-116.8,82.8-225.5,125-332.3,128.9C904.2,204,898.8,204.1,893.5,204.1"/>
					<path id="Path_1034" class="st12" d="M900.4,219.2c-118.9,0-219.9-48.2-303.5-95.8c-0.7-0.4-0.7-1,0.1-1.4
						c0.9-0.4,1.9-0.4,2.7,0.1c86,49,190.6,98.6,313.7,94.9c108-3.3,217.6-46,335.1-130.7c20-14.5,40.1-28.5,59.8-41.7
						c0.8-0.4,1.8-0.5,2.7-0.2c0.8,0.3,1,1,0.3,1.4c-19.6,13.1-39.7,27.1-59.7,41.6c-118.2,85.2-228.7,128.3-338,131.6
						C909.2,219.1,904.8,219.2,900.4,219.2"/>
					<path id="Path_1035" class="st13" d="M907.2,234.3c-127,0-235.7-54.2-334.5-113.1c-0.7-0.4-0.6-1.1,0.2-1.4
						c0.9-0.4,1.9-0.3,2.7,0.1c101.2,60.3,212.8,115.8,343.2,112.2c110.1-2.9,221.1-46.5,339.4-133.3c23.9-17.5,47.2-33.9,69.4-48.7
						c0.8-0.5,1.8-0.5,2.7-0.2c0.8,0.3,1,1,0.3,1.4c-22.2,14.8-45.5,31.2-69.3,48.7c-119,87.3-231,131.2-342.3,134.2
						C915,234.3,911.1,234.3,907.2,234.3"/>
					<path id="Path_1036" class="st14" d="M914.1,249.5c-141.1,0-260.9-66.5-362.5-129.1c-0.7-0.4-0.6-1.1,0.2-1.4
						c0.9-0.4,1.9-0.3,2.7,0.1c103.6,63.9,226,131.8,370.2,128.3c112.1-2.7,224.3-47.2,343.3-136c27.2-20.3,53.9-39.1,79.3-56
						c0.8-0.5,1.8-0.5,2.7-0.2c0.8,0.3,1,1,0.3,1.4c-25.3,16.9-52,35.7-79.1,55.9c-119.7,89.3-232.9,134.1-346.2,136.8
						C921.3,249.4,917.7,249.5,914.1,249.5"/>
					<path id="Path_1037" class="st15" d="M920.9,264.7c-137.7,0-257.3-62.7-366.2-130.7c-8.2-5.2-15.4-9.6-21.9-13.5
						c-0.7-0.4-0.6-1.1,0.2-1.4c0.9-0.4,1.9-0.3,2.7,0.1c6.6,3.9,13.8,8.3,22,13.5C668.8,202.1,791,266,931.8,262.5
						c113.7-2.8,226.9-48.1,346-138.6c30.3-23,60.5-44.5,89.7-63.8c0.8-0.4,1.8-0.5,2.7-0.2c0.8,0.3,1,1,0.3,1.4
						c-29.2,19.3-59.3,40.7-89.5,63.7c-119.9,91-234.1,136.6-349,139.4C928.2,264.6,924.5,264.7,920.9,264.7"/>
					<path id="Path_1038" class="st16" d="M927.6,279.9c-141.1,0-264.2-65.6-366.4-130.3c-17.7-11.1-32.5-20.1-46.8-28.2
						c-0.7-0.4-0.7-1,0.1-1.4c0.9-0.4,1.9-0.4,2.7,0.1c14.3,8.1,29.2,17.1,46.9,28.3c101.7,64.3,224,129.6,363.5,129.6
						c3.7,0,7.4,0,11.1-0.1c115.4-2.9,229.5-49.1,348.9-141.3c35.6-27.5,68.6-51,100.7-72.1c0.8-0.4,1.8-0.5,2.7-0.2
						c0.8,0.3,1,1,0.3,1.4c-32.1,21-64.9,44.5-100.5,71.9c-120.1,92.8-235.2,139.3-351.9,142.2C935.2,279.9,931.4,279.9,927.6,279.9
						"/>
					<path id="Path_1039" class="st17" d="M934.2,295.2c-143.3,0-265.5-65.5-366.6-130c-25.4-16.2-48.5-29.9-70.8-42
						c-0.7-0.4-0.7-1,0-1.4c0.9-0.4,1.9-0.4,2.7,0c22.3,12.1,45.6,25.9,71,42.1c103.3,66,228.8,133,375.6,129.1
						c116.9-3,231.8-50.1,351.3-144c39.5-31,77.6-58.4,113.2-81.4c0.8-0.4,1.8-0.5,2.7-0.1c0.8,0.3,0.9,1,0.3,1.4
						c-35.6,22.9-73.6,50.2-113,81.2c-120.2,94.4-236.1,141.8-354.3,144.9C942.3,295.2,938.2,295.2,934.2,295.2"/>
					<path id="Path_1040" class="st18" d="M705.9,254.2c-0.4,0-0.9-0.1-1.3-0.3c-41.1-19-83.8-42.9-130.5-73.1
						c-34.1-22.1-65-40.1-94.6-54.9c-0.8-0.4-0.8-1-0.1-1.4c0.9-0.4,1.9-0.4,2.7,0c29.7,14.9,60.8,32.9,95,55.1
						c46.6,30.1,89.1,53.9,130,72.9c0.8,0.4,0.9,1,0.2,1.4C706.9,254.1,706.4,254.2,705.9,254.2"/>
					<path id="Path_1041" class="st18" d="M940.5,310.3c-50.3,0-101.1-8-152.4-24c-0.9-0.3-1.2-0.9-0.7-1.4c0.8-0.5,1.8-0.6,2.6-0.4
						c83,25.8,161.9,30.7,241.4,15c90.9-18,183.7-64.4,275.7-137.9c44.4-35.7,87.8-66.8,128.9-92.6c0.8-0.4,1.8-0.5,2.7-0.1
						c0.8,0.4,0.9,1,0.2,1.4c-41,25.7-84.3,56.8-128.6,92.4C1187.1,261.4,1064.9,310.3,940.5,310.3"/>
					<path id="Path_1042" class="st18" d="M1528.2,20.3c-0.5,0-1-0.1-1.4-0.3c-0.7-0.4-0.6-1.1,0.1-1.4c12.6-5.9,28.2-12.2,34.8-15
						l2.5-1c0.9-0.3,1.9-0.3,2.7,0.2c0.7,0.4,0.5,1.1-0.3,1.4l-2.5,1c-6.6,2.7-22.1,9-34.6,14.9C1529,20.2,1528.6,20.3,1528.2,20.3"
						/>
					<path id="Path_1043" class="st19" d="M681.4,254.9c-0.5,0-0.9-0.1-1.3-0.3c-30.6-15.6-63.2-34.6-99.6-58.2
						c-45-29.3-82.5-50.6-117.9-66.8c-0.8-0.4-0.9-1-0.2-1.4c0.9-0.4,1.8-0.5,2.7-0.1c35.6,16.4,73.2,37.7,118.4,67.1
						c36.3,23.5,68.8,42.5,99.3,58c0.8,0.4,0.8,1,0,1.4C682.4,254.8,681.9,254.9,681.4,254.9"/>
					<path id="Path_1044" class="st19" d="M947.6,325.8c-50.9,0-102.4-8.1-154.4-24.3c-0.9-0.3-1.2-0.9-0.7-1.4
						c0.8-0.5,1.8-0.6,2.6-0.4c179.1,55.7,349.8,14.6,521.8-125.5c56.2-45.6,107.7-81.9,157.4-111c0.9-0.4,1.8-0.4,2.7-0.1
						c0.8,0.4,0.9,1,0.1,1.4c-49.6,29-101,65.2-157.1,110.7C1196.6,275.9,1073.6,325.8,947.6,325.8"/>
					<path id="Path_1045" class="st19" d="M1506.6,47.7c-0.5,0-0.9-0.1-1.4-0.3c-0.8-0.4-0.8-1,0-1.4
						c36.9-19.6,71.4-34.6,105.6-45.8c0.9-0.3,1.9-0.2,2.7,0.3c0.6,0.5,0.3,1.1-0.6,1.4c-33.9,11.2-68.2,26-104.9,45.5
						C1507.5,47.6,1507.1,47.7,1506.6,47.7"/>
					<path id="Path_1046" class="st19" d="M1998.6,53.5c-0.5,0-1-0.1-1.5-0.4c-12.6-7.7-25.9-15.2-39.4-22.2c-0.8-0.4-0.8-1,0-1.4
						c0.9-0.4,1.9-0.4,2.7,0c13.6,7.1,26.9,14.6,39.6,22.3c0.7,0.4,0.6,1.1-0.2,1.4C1999.4,53.5,1999,53.6,1998.6,53.5"/>
					<path id="Path_1047" class="st20" d="M663.3,257.7c-0.5,0-1-0.1-1.4-0.3c-24.9-13.7-50.1-29-74.9-45.3
						c-54.1-35.6-99-60.4-141.1-77.9c-0.8-0.3-1-1-0.3-1.4c0.8-0.4,1.8-0.5,2.7-0.2c42.4,17.6,87.4,42.5,141.8,78.2
						c24.7,16.3,49.9,31.5,74.7,45.2c0.7,0.4,0.7,1-0.1,1.4C664.2,257.7,663.8,257.8,663.3,257.7"/>
					<path id="Path_1048" class="st20" d="M954.8,341.3c-52.4,0-105.4-8.6-159.2-25.7c-0.9-0.3-1.2-0.9-0.6-1.4
						c0.8-0.5,1.8-0.6,2.7-0.3c182.8,58,355.9,16.4,529-127.1c109.8-91,208.7-149.3,302.2-178c0.9-0.3,1.9-0.2,2.6,0.4
						c0.5,0.5,0.2,1.1-0.7,1.4c-93,28.6-191.5,86.6-300.9,177.4C1206.2,290.5,1082.3,341.3,954.8,341.3"/>
					<path id="Path_1049" class="st20" d="M2003.8,64.4c-0.5,0-1-0.1-1.5-0.4c-22.9-14-46.7-26.5-71.3-37.3c-0.8-0.4-0.9-1-0.2-1.4
						c0.8-0.4,1.8-0.5,2.7-0.1c24.7,10.9,48.7,23.4,71.7,37.5c0.7,0.4,0.6,1.1-0.2,1.4C2004.6,64.4,2004.2,64.4,2003.8,64.4"/>
					<path id="Path_1050" class="st21" d="M649,261.8c-0.5,0-1-0.1-1.4-0.3c-19.1-11.2-37.4-22.5-54.2-33.7
						c-63.5-42.2-115.6-70.2-163.8-88c-0.9-0.3-1.1-1-0.5-1.4c0.8-0.5,1.8-0.6,2.7-0.2c48.5,18,100.8,46.1,164.6,88.4
						c16.8,11.2,35,22.5,54.1,33.6c0.7,0.4,0.6,1.1-0.1,1.4C649.9,261.7,649.5,261.8,649,261.8"/>
					<path id="Path_1051" class="st21" d="M961.3,356.7c-52.2,0-105.2-8.4-158.5-25.1c-0.9-0.3-1.2-0.9-0.7-1.4
						c0.8-0.5,1.8-0.6,2.6-0.3c85,26.6,165.8,31.9,247.1,16.1c0.9-0.2,1.8,0,2.5,0.6c0.4,0.5-0.1,1.1-1.1,1.3
						C1022.9,353.7,992.1,356.7,961.3,356.7"/>
					<path id="Path_1052" class="st21" d="M1125.8,327.7c-0.6,0-1.1-0.1-1.6-0.4c-0.6-0.5-0.4-1.1,0.5-1.4
						c43.5-15.4,85.7-36.6,129.1-64.7c0.8-0.4,1.8-0.5,2.7-0.2c0.8,0.4,1,1,0.3,1.4c-43.6,28.3-86.1,49.6-129.9,65.1
						C1126.5,327.7,1126.2,327.7,1125.8,327.7"/>
					<path id="Path_1053" class="st21" d="M1279,246.8c-0.4,0-0.8-0.1-1.1-0.2c-0.9-0.3-1-1-0.4-1.4c20.6-14.6,40.5-30.1,59.1-45.8
						c109.7-92.5,209-151.3,303.6-179.6c0.9-0.3,1.9-0.1,2.6,0.4c0.5,0.5,0.2,1.1-0.7,1.4c-94,28.2-192.9,86.7-302.2,179
						c-18.6,15.8-38.6,31.3-59.2,45.9C1280.1,246.6,1279.5,246.8,1279,246.8"/>
					<path id="Path_1054" class="st21" d="M2003.9,72.3c-0.5,0-1-0.1-1.4-0.3c-31.8-19-63.6-34.2-94.6-45.3
						c-0.9-0.3-1.1-0.9-0.5-1.4c0.8-0.5,1.8-0.6,2.7-0.3c31.3,11.2,63.4,26.5,95.4,45.6c0.7,0.4,0.6,1.1-0.2,1.4
						C2004.8,72.2,2004.4,72.3,2003.9,72.3"/>
					<path id="Path_1055" class="st22" d="M637.9,267c-0.5,0-1-0.1-1.5-0.3c-12.2-7.4-24.5-15.3-36.5-23.3
						c-74-49.5-131.5-79.4-186.4-97.1c-0.9-0.3-1.2-0.9-0.6-1.4c0.8-0.5,1.8-0.6,2.6-0.3c55.3,17.8,113.1,47.9,187.4,97.5
						c11.9,8.1,24.2,15.9,36.4,23.3c0.7,0.4,0.6,1.1-0.2,1.4C638.7,266.9,638.3,267,637.9,267"/>
					<path id="Path_1056" class="st22" d="M968.2,372.3c-48.3,0-97.8-7.2-147.4-21.6c-0.9-0.3-1.3-0.9-0.8-1.4
						c0.8-0.5,1.7-0.7,2.6-0.4c54.4,15.7,108.5,22.8,161,21c1,0,2,0.4,2,0.9s-0.7,1-1.8,1.1C978.7,372.2,973.4,372.3,968.2,372.3"/>
					<path id="Path_1057" class="st22" d="M1161.4,332.3c-0.5,0-1-0.1-1.5-0.4c-0.7-0.4-0.5-1.1,0.3-1.4
						c29.9-12.7,58.7-27.7,86.3-44.8c0.8-0.4,1.8-0.5,2.7-0.1c0.8,0.4,0.9,1,0.2,1.4c-27.7,17.3-56.7,32.4-86.8,45.1
						C1162.3,332.2,1161.9,332.3,1161.4,332.3"/>
					<path id="Path_1058" class="st22" d="M1317.1,238.8c-0.4,0-0.7-0.1-1.1-0.2c-0.9-0.3-1.1-0.9-0.5-1.4
						c9.2-7.3,20.1-16,30.8-25.3c108.9-93.7,208.5-153,304.6-181.3c0.9-0.3,1.9-0.1,2.6,0.4c0.5,0.5,0.2,1.1-0.7,1.4
						c-95.5,28.1-194.6,87.1-303.2,180.6c-10.7,9.3-21.6,18-30.9,25.3C1318.3,238.6,1317.7,238.8,1317.1,238.8"/>
					<path id="Path_1059" class="st22" d="M2001.6,78.9c-0.5,0-1-0.1-1.4-0.3c-39.2-22.6-76.8-38.8-114.9-49.5
						c-0.9-0.3-1.3-0.9-0.8-1.4c0.8-0.5,1.7-0.7,2.6-0.4c38.5,10.8,76.5,27.2,115.9,49.9c0.7,0.4,0.7,1.1-0.1,1.4
						C2002.5,78.8,2002.1,78.9,2001.6,78.9"/>
					<path id="Path_1060" class="st23" d="M629.8,273.8c-0.5,0-1-0.1-1.5-0.4c-7.2-4.7-14.7-9.5-22-14.4
						c-83-56-147.2-88.4-208.3-105.2c-0.9-0.3-1.3-0.9-0.8-1.4c0.8-0.5,1.7-0.7,2.6-0.4c61.5,16.9,126.2,49.5,209.5,105.8
						c7.3,4.9,14.8,9.8,21.9,14.4c0.7,0.4,0.5,1.1-0.3,1.4C630.6,273.7,630.2,273.8,629.8,273.8"/>
					<path id="Path_1061" class="st23" d="M1179.4,343.2c-0.5,0-1-0.1-1.5-0.4c-0.7-0.4-0.6-1.1,0.2-1.4
						c25.8-11.5,50.8-24.8,74.7-39.8c0.8-0.4,1.8-0.5,2.7-0.1c0.8,0.4,0.9,1,0.2,1.4c-24.1,15.1-49.2,28.4-75.2,40.1
						C1180.2,343.1,1179.8,343.2,1179.4,343.2"/>
					<path id="Path_1062" class="st23" d="M1343,238.6c-0.3,0-0.7,0-1-0.2c-0.9-0.3-1.2-0.9-0.6-1.4c5-4.1,9.8-8.3,14.8-12.6
						c110.1-96.4,211.5-156.6,310-184c0.9-0.3,1.8-0.1,2.6,0.4c0.5,0.5,0.1,1.1-0.8,1.4c-97.9,27.3-198.9,87.2-308.5,183.3
						c-5,4.3-9.9,8.5-14.9,12.6C1344.1,238.5,1343.5,238.6,1343,238.6"/>
					<path id="Path_1063" class="st23" d="M1997.8,84.7c-0.5,0-1-0.1-1.4-0.3c-45.1-25-88.9-41.5-133.8-50.7c-1-0.2-1.5-0.8-1.1-1.3
						c0.7-0.6,1.6-0.8,2.5-0.6c45.5,9.2,89.7,26,135.2,51.2c0.7,0.4,0.7,1-0.1,1.4C1998.7,84.6,1998.3,84.7,1997.8,84.7"/>
					<path id="Path_1064" class="st24" d="M626.3,283c-0.5,0-1-0.1-1.5-0.4c-4-2.6-8.1-5.3-12-8c-93.3-63.4-162.1-97-230.1-112.3
						c-1-0.2-1.4-0.8-1-1.3c0.7-0.6,1.7-0.8,2.5-0.5c68.6,15.5,137.9,49.2,231.6,113c3.9,2.7,8,5.4,11.9,7.9
						c0.7,0.4,0.5,1.1-0.3,1.4C627.1,282.9,626.7,283,626.3,283"/>
					<path id="Path_1065" class="st24" d="M1193,355.8c-0.5,0-1-0.1-1.4-0.3c-0.7-0.4-0.6-1.1,0.2-1.4c25-11.6,49.2-24.8,72.4-39.6
						c0.8-0.4,1.8-0.5,2.7-0.1c0.8,0.4,0.9,1,0.3,1.4c-23.4,14.9-47.7,28.2-72.9,39.8C1193.9,355.7,1193.5,355.8,1193,355.8"/>
					<path id="Path_1066" class="st24" d="M1365.1,240.7c-0.3,0-0.6,0-0.9-0.1c-0.9-0.3-1.3-0.9-0.7-1.4c0.8-0.8,1.7-1.5,2.6-2.2
						c112.2-100.2,220.9-163.7,322.8-188.6c0.9-0.3,1.8-0.1,2.6,0.5c0.5,0.5,0,1.1-0.9,1.3c-101.2,24.7-209.2,87.9-321.2,187.9
						c-0.9,0.7-1.7,1.4-2.5,2.1C1366.3,240.6,1365.7,240.7,1365.1,240.7"/>
					<path id="Path_1067" class="st24" d="M1992.6,89.9c-0.5,0-0.9-0.1-1.4-0.3c-51.1-26.8-103.1-43.3-154.6-49.2
						c-1-0.1-1.7-0.7-1.5-1.2s1.2-0.9,2.3-0.8c52.2,6,104.8,22.7,156.5,49.8c0.8,0.4,0.8,1,0,1.4C1993.5,89.8,1993.1,90,1992.6,89.9
						"/>
					<path id="Path_1068" class="st25" d="M632.1,298.3c-0.5,0-1-0.1-1.5-0.4c-3.1-2-6-4-9-6.1l-2.4-1.6
						C517.1,220.3,442,184.9,368,171.8c-1-0.2-1.5-0.8-1.2-1.3c0.7-0.6,1.6-0.9,2.4-0.6c74.7,13.2,150.4,48.8,253,119.1l2.4,1.6
						c3,2,5.9,4,9,6c0.7,0.4,0.5,1.1-0.3,1.4C632.9,298.2,632.5,298.3,632.1,298.3"/>
					<path id="Path_1069" class="st25" d="M1206.9,368.2c-0.5,0-1-0.1-1.4-0.3c-0.7-0.4-0.7-1,0.1-1.4c25.3-12,49.7-25.8,73-41.2
						c0.8-0.4,1.8-0.5,2.7-0.2c0.8,0.3,1,1,0.3,1.4c-23.5,15.5-48,29.4-73.4,41.5C1207.8,368.1,1207.4,368.2,1206.9,368.2"/>
					<path id="Path_1070" class="st25" d="M1385.9,243.5c-0.3,0-0.7,0-1-0.1c-0.9-0.3-1.2-0.9-0.7-1.4
						C1505,134.1,1622.4,70.5,1733.2,53c0.9-0.2,1.8,0,2.4,0.7c0.3,0.5-0.3,1.1-1.3,1.3c-109.9,17.4-226.6,80.6-346.7,188.1
						C1387.1,243.4,1386.5,243.6,1385.9,243.5"/>
					<path id="Path_1071" class="st25" d="M1986,95c-0.5,0-0.9-0.1-1.3-0.3c-61.9-30.2-122.8-45-186.1-45c-2.8,0-5.5,0-8.3,0.1
						c-1.1,0-2-0.4-2-1s0.8-1,1.9-1c66.4-1.4,132.7,13.9,197.2,45.4c0.8,0.4,0.8,1,0.1,1.4C1987,94.9,1986.5,95,1986,95"/>
					<path id="Path_1072" class="st26" d="M635.7,312.1c-0.5,0-1.1-0.1-1.5-0.4c-1.4-1-2.9-1.9-4.3-2.9s-2.8-1.9-4.2-2.9
						c-110.8-76.4-192.2-113.5-272-123.9c-1-0.1-1.7-0.7-1.4-1.2c0.6-0.7,1.5-0.9,2.3-0.7c81.8,10.7,161.3,46.8,274.1,124.6
						c1.4,0.9,2.8,1.9,4.2,2.9s2.8,1.9,4.2,2.9c0.7,0.4,0.5,1.1-0.3,1.4C636.5,312,636.1,312.1,635.7,312.1"/>
					<path id="Path_1073" class="st26" d="M1230.2,375.8c-0.5,0-0.9-0.1-1.4-0.3c-0.7-0.4-0.7-1,0-1.4
						c21.4-11.1,42.2-23.4,62.3-36.8c0.8-0.5,1.8-0.5,2.7-0.2c0.8,0.3,1,1,0.3,1.4c-20.1,13.5-41,25.9-62.6,37
						C1231.2,375.7,1230.7,375.8,1230.2,375.8"/>
					<path id="Path_1074" class="st26" d="M1407.1,245.6c-0.3,0-0.7,0-1-0.1c-0.9-0.3-1.2-0.9-0.7-1.4
						c125.2-111.2,248-172.7,364.9-182.9c70.5-6.1,140.7,6.2,208.6,36.7c0.8,0.4,0.9,1,0.2,1.4c-0.8,0.4-1.8,0.5-2.7,0.1
						c-67-30.1-136.1-42.3-205.4-36.2c-115.8,10.1-237.6,71.3-362.2,181.9C1408.3,245.5,1407.7,245.7,1407.1,245.6"/>
					<path id="Path_1075" class="st27" d="M634.6,322.5c-0.5,0-0.9-0.1-1.4-0.3l-1-0.5c-120.4-83.8-205-120.9-292.2-128.3
						c-1.1-0.1-1.8-0.6-1.6-1.2s1.2-0.9,2.2-0.8c88.3,7.5,173.7,44.9,294.5,129l0.8,0.4c0.8,0.4,0.8,1,0,1.4
						C635.5,322.4,635.1,322.5,634.6,322.5"/>
					<path id="Path_1076" class="st27" d="M1273.4,371.5c-0.4,0-0.8-0.1-1.2-0.2c-0.8-0.4-0.9-1-0.2-1.4c6.2-3.9,12.7-7.9,19-12.1
						c0.8-0.5,1.8-0.5,2.7-0.2c0.8,0.3,1,1,0.3,1.4c-6.4,4.2-12.9,8.3-19.1,12.1C1274.4,371.4,1273.9,371.5,1273.4,371.5"/>
					<path id="Path_1077" class="st27" d="M1429.3,246.8c-0.3,0-0.7,0-1-0.1c-0.9-0.3-1.2-0.9-0.7-1.4
						c117-102.6,233.1-160.3,344.8-171.5c66.4-6.6,132.4,3,196.2,28.7c0.8,0.3,1,1,0.4,1.4c-0.8,0.5-1.8,0.5-2.7,0.2
						c-62.9-25.3-127.9-34.8-193.1-28.3c-110.6,11.1-225.8,68.5-342.3,170.6C1430.5,246.6,1429.9,246.8,1429.3,246.8"/>
					<path id="Path_1078" class="st28" d="M630.7,331.1c-0.5,0-1.1-0.1-1.5-0.4c-123.3-85.2-211-121.6-302.5-125.4
						c-1.1,0-1.9-0.5-1.8-1.1s0.9-1,2.1-0.9c92.8,3.8,181.2,40.4,305.3,126.1c0.6,0.4,0.5,1.1-0.4,1.4
						C631.5,331,631.1,331.1,630.7,331.1"/>
					<path id="Path_1079" class="st28" d="M1453.4,246.4c-0.3,0-0.7,0-1-0.1c-0.9-0.3-1.2-0.9-0.6-1.4
						c108-92.9,216.1-146.2,321.3-158.4c61.7-7.2,123.1-0.3,182.6,20.4c0.9,0.3,1.1,0.9,0.5,1.4c-0.8,0.5-1.8,0.6-2.7,0.3
						c-58.6-20.4-119-27.1-179.6-20.1c-104.2,12.1-211.5,65.1-318.9,157.5C1454.6,246.2,1454,246.4,1453.4,246.4"/>
					<path id="Path_1080" class="st29" d="M625.1,338.3c-0.5,0-1.1-0.1-1.5-0.4C498.9,252.8,409.2,218,314.1,218
						c-1.1,0-1.9-0.5-1.9-1s0.9-1,1.9-1c96.4,0,187,35,312.6,120.7c0.7,0.4,0.5,1.1-0.4,1.4C625.9,338.2,625.5,338.3,625.1,338.3"/>
					<path id="Path_1081" class="st29" d="M1480.9,242.9c-0.3,0-0.7,0-1-0.2c-0.9-0.3-1.2-0.9-0.6-1.4
						c155.1-128.7,309.6-172.6,459.3-130.4c0.9,0.3,1.3,0.9,0.8,1.4c-0.8,0.5-1.7,0.7-2.6,0.4c-147.6-41.5-300.4,2.1-454.2,129.7
						C1482.1,242.8,1481.5,242.9,1480.9,242.9"/>
					<path id="Path_1082" class="st30" d="M617.8,344.5c-0.5,0-1.1-0.1-1.5-0.4c-124.9-83.9-216-116.6-314.4-112.8
						c-1.2,0-2-0.4-2.1-0.9c-0.1-0.6,0.7-1,1.8-1.1c99.9-3.9,191.9,29,317.7,113.5c0.7,0.4,0.5,1.1-0.3,1.4
						C618.6,344.4,618.2,344.5,617.8,344.5 M1590.4,182.9c-0.4,0-0.9-0.1-1.3-0.2c-0.8-0.4-0.9-1-0.2-1.4
						c108.8-64.8,217.9-87.1,324.3-66.1c1,0.2,1.5,0.8,1.1,1.3c-0.7,0.6-1.6,0.8-2.5,0.6c-104.8-20.6-212.4,1.4-320.1,65.6
						C1591.4,182.8,1590.9,182.9,1590.4,182.9"/>
					<path id="Path_1083" class="st31" d="M609.1,349.9c-0.5,0-1.1-0.1-1.5-0.4C482.7,267.2,390.3,237,288.6,245.2
						c-1.1,0.1-2-0.3-2.2-0.8s0.6-1.1,1.6-1.1c103.3-8.3,196.8,22.1,322.7,105c0.7,0.4,0.5,1.1-0.3,1.4
						C610,349.9,609.6,349.9,609.1,349.9 M1.9,344.7c-0.5,0-0.9-0.1-1.4-0.3c-0.8-0.4-0.8-1,0-1.4C25,330,45,320,63.5,311.4
						c0.9-0.4,1.9-0.3,2.7,0.1c0.7,0.4,0.6,1.1-0.1,1.4c-18.4,8.6-38.3,18.6-62.7,31.5C2.9,344.6,2.4,344.7,1.9,344.7 M1629.3,177.6
						c-0.5,0-0.9-0.1-1.4-0.3c-0.8-0.4-0.8-1,0-1.4c81.2-42.7,163.4-61.3,244.4-55.2c1,0.1,1.8,0.6,1.6,1.1s-1.1,0.9-2.2,0.9
						c-79.7-5.9-160.9,12.5-241.2,54.7C1630.3,177.5,1629.8,177.6,1629.3,177.6"/>
					<path id="Path_1084" class="st32" d="M6.4,357c-0.5,0-0.9-0.1-1.3-0.3c-0.8-0.4-0.8-1,0-1.4c30.7-16.4,60-30.7,87-42.7
						c0.9-0.4,1.9-0.3,2.7,0.1c0.7,0.4,0.6,1.1-0.2,1.4c-27,11.9-56.2,26.3-86.8,42.6C7.3,356.9,6.8,357,6.4,357 M598.7,354.4
						c-0.5,0-1-0.1-1.5-0.4c-124.9-80.1-219.1-107.3-325.1-93.7c-1,0.1-2.1-0.2-2.3-0.7s0.4-1.1,1.4-1.2
						c107.6-13.8,202.9,13.6,329,94.4c0.7,0.4,0.6,1.1-0.3,1.4C599.6,354.3,599.2,354.4,598.7,354.4 M1657.7,179.4
						c-0.5,0-1-0.1-1.4-0.3c-0.7-0.4-0.7-1,0.1-1.4c61.3-29.2,123.5-44.8,184.9-46.1c1-0.1,2,0.4,2,1s-0.8,1-1.8,1
						c-60.4,1.4-121.8,16.7-182.4,45.6C1658.5,179.3,1658.1,179.4,1657.7,179.4"/>
					<path id="Path_1085" class="st33" d="M16.2,366.3c-0.5,0-0.9-0.1-1.4-0.3c-0.8-0.4-0.8-1,0-1.4c40.3-21.2,76.2-38.1,109.8-51.6
						c0.9-0.3,1.9-0.3,2.7,0.2c0.7,0.4,0.5,1.1-0.4,1.4C93.5,328,57.7,344.8,17.5,366C17.1,366.2,16.7,366.3,16.2,366.3
						 M586.6,357.8c-0.5,0-1-0.1-1.5-0.4c-126-77.9-223.2-101.2-335.5-80.3c-0.9,0.2-1.8,0-2.5-0.6c-0.4-0.5,0.2-1.1,1.2-1.3
						c114.1-21.2,212.6,2.2,339.7,80.9c0.7,0.4,0.6,1.1-0.2,1.4C587.4,357.7,587,357.8,586.6,357.8 M1680.8,184.2
						c-0.5,0-1-0.1-1.5-0.4c-0.7-0.4-0.6-1.1,0.2-1.4c48.4-21.3,97.9-34.1,147-37.8c1.1-0.1,2,0.3,2.2,0.9s-0.6,1.1-1.6,1.1
						c-48.4,3.7-97.2,16.3-145.1,37.4C1681.6,184.2,1681.2,184.2,1680.8,184.2"/>
					<path id="Path_1086" class="st34" d="M30.1,373.4c-0.5,0-0.9-0.1-1.4-0.3c-0.7-0.4-0.7-1,0-1.4
						c124.8-64.3,218.9-92.3,306.1-90.7c76.5,1.4,149.9,25.2,238.2,77.4c0.7,0.4,0.6,1.1-0.2,1.4c-0.9,0.4-1.9,0.3-2.7-0.1
						C482.7,308,410.1,284.3,334.7,283c-85.9-1.6-179.4,26.3-303.3,90.2C31,373.3,30.5,373.4,30.1,373.4 M1701.2,190.8
						c-0.5,0-1.1-0.1-1.5-0.4c-0.7-0.4-0.5-1.1,0.3-1.4c38.5-16,79.1-26.5,120.5-31.2c1.1-0.1,2.1,0.2,2.3,0.8
						c0.2,0.5-0.5,1.1-1.5,1.2c-40.9,4.6-80.9,15-118.9,30.8C1702,190.7,1701.6,190.8,1701.2,190.8"/>
					<path id="Path_1087" class="st35" d="M48.4,378.6c-0.5,0-1-0.1-1.4-0.3c-0.7-0.4-0.7-1,0.1-1.4
						c116.4-58.4,205.5-83.9,288.6-82.9c70.3,0.9,139.5,21.4,217.7,64.5c0.7,0.4,0.7,1-0.1,1.4c-0.9,0.4-1.9,0.4-2.7,0
						c-77.5-42.7-145.8-63-215-63.9c-1.6,0-3.2,0-4.7,0c-80.7,0-167.7,25.5-281.1,82.4C49.3,378.5,48.8,378.6,48.4,378.6
						 M1724.9,196.5c-0.6,0-1.1-0.1-1.6-0.4c-0.6-0.5-0.4-1.1,0.5-1.4c30.5-11.4,62.2-19.4,94.5-23.7c0.9-0.2,1.8,0.1,2.3,0.7
						c0.3,0.5-0.4,1.1-1.4,1.2c-31.8,4.3-63.1,12.2-93.2,23.4C1725.7,196.5,1725.3,196.5,1724.9,196.5"/>
					<path id="Path_1088" class="st36" d="M72.3,381.3c-0.5,0-1-0.1-1.4-0.3c-0.7-0.4-0.7-1,0.1-1.4
						c154.9-74.5,264.9-90.3,379.6-54.4c0.9,0.3,1.2,0.9,0.7,1.4c-0.8,0.5-1.8,0.6-2.6,0.3c-113-35.3-221.6-19.6-375,54.1
						C73.2,381.2,72.7,381.3,72.3,381.3 M1758.5,199.7c-0.6,0-1.2-0.1-1.7-0.5c-0.5-0.5-0.2-1.1,0.7-1.4
						c16.1-4.9,32.5-8.9,49.1-11.9c0.9-0.2,1.8,0,2.5,0.6c0.4,0.5-0.2,1.1-1.2,1.3c-16.4,3-32.5,6.9-48.4,11.7
						C1759.1,199.6,1758.8,199.7,1758.5,199.7"/>
					<path id="Path_1089" class="st37" d="M105.2,380.3c-0.5,0-1-0.1-1.5-0.4c-0.7-0.4-0.6-1.1,0.2-1.4
						c113.5-50.8,202.8-67.5,289.7-54.4c1,0.2,1.6,0.7,1.3,1.3c-0.6,0.6-1.5,0.9-2.4,0.7c-85.5-13-173.7,3.7-286.1,54
						C106.1,380.2,105.6,380.3,105.2,380.3"/>
					<path id="Path_1090" class="st38" d="M159.6,372c-0.6,0-1.1-0.1-1.6-0.4c-0.6-0.5-0.4-1.1,0.4-1.4
						c64.6-24.4,122-36.6,175.7-37.3c1.2,0,1.9,0.4,2,1s-0.8,1-1.9,1c-52.8,0.7-109.6,12.8-173.5,36.9
						C160.3,371.9,159.9,372,159.6,372"/>
				</g>
			</g>
		</g>
	</g>
</g>
</svg>
