<svg xmlns="http://www.w3.org/2000/svg" width="17.746" height="31.943" viewBox="0 0 17.746 31.943">
  <g id="Triple_upper_Chevron" data-name="Triple upper Chevron" transform="translate(24.844 15.971) rotate(135)">
    <g id="Group_3108" data-name="Group 3108" transform="translate(0 10.039)">
      <path id="Path_4502" data-name="Path 4502" d="M11.293,12.548a1.255,1.255,0,0,1-1.255-1.255V2.51H1.255a1.255,1.255,0,1,1,0-2.51H11.293a1.255,1.255,0,0,1,1.255,1.255V11.293A1.255,1.255,0,0,1,11.293,12.548Z" fill="#fff"/>
    </g>
    <g id="Group_3109" data-name="Group 3109" transform="translate(5.019 5.019)">
      <path id="Path_4503" data-name="Path 4503" d="M11.293,12.548a1.254,1.254,0,0,1-1.255-1.255V2.51H1.255a1.255,1.255,0,1,1,0-2.51H11.293a1.254,1.254,0,0,1,1.255,1.255V11.293A1.254,1.254,0,0,1,11.293,12.548Z" fill="#fff"/>
    </g>
    <g id="Group_3110" data-name="Group 3110" transform="translate(10.039 0)">
      <path id="Path_4504" data-name="Path 4504" d="M11.293,12.548a1.254,1.254,0,0,1-1.255-1.255V2.51H1.255a1.255,1.255,0,1,1,0-2.51H11.293a1.254,1.254,0,0,1,1.255,1.255V11.293A1.254,1.254,0,0,1,11.293,12.548Z" fill="#fff"/>
    </g>
  </g>
</svg>
