<svg xmlns="http://www.w3.org/2000/svg" xmlns:xlink="http://www.w3.org/1999/xlink" width="1365.5" height="434" viewBox="0 0 1365.5 434">
  <defs>
    <clipPath id="clip-path">
      <rect id="Rectangle_1082" data-name="Rectangle 1082" width="1365.5" height="434" fill="#fff"/>
    </clipPath>
    <clipPath id="clip-path-2">
      <rect id="Rectangle_1081" data-name="Rectangle 1081" width="2005.878" height="381.278" fill="none"/>
    </clipPath>
  </defs>
  <g id="Mask_Group_6" data-name="Mask Group 6" opacity="0.05" clip-path="url(#clip-path)">
    <g id="Group_2680" data-name="Group 2680" transform="translate(-297.24 60.5)">
      <g id="Group_2679" data-name="Group 2679" clip-path="url(#clip-path-2)">
        <path id="Path_1023" data-name="Path 1023" d="M732.852,104.426c-.91,0-1.721-.337-1.893-.823-.2-.546.491-1.074,1.542-1.174,15.18-1.48,30.575-3.769,45.744-6.806a2.754,2.754,0,0,1,2.491.58c.379.521-.119,1.1-1.109,1.3a468.679,468.679,0,0,1-46.423,6.9,3.1,3.1,0,0,1-.352.017" transform="translate(137.711 -36.179)" fill="#2f4cfe"/>
        <path id="Path_1024" data-name="Path 1024" d="M723.493,125.943c-.977,0-1.814-.386-1.92-.9-.106-.552.658-1.049,1.72-1.108a463.175,463.175,0,0,0,89.177-13.969,2.946,2.946,0,0,1,2.585.462c.465.5.073,1.1-.884,1.352a469.926,469.926,0,0,1-90.478,14.164c-.066,0-.133,0-.2,0" transform="translate(135.947 -41.594)" fill="#304afd"/>
        <path id="Path_1025" data-name="Path 1025" d="M709.9,147.365c-1.191-.007-2.265-.393-2.259-1.007,0-.559.864-1.008,1.925-1.008h.334c41.923,0,85.841-6.545,130.555-19.458a3.03,3.03,0,0,1,2.618.4c.517.487.18,1.1-.757,1.369-45.287,13.076-89.842,19.708-132.416,19.708" transform="translate(133.324 -47.615)" fill="#3349fc"/>
        <path id="Path_1026" data-name="Path 1026" d="M870.915,73.748a2.836,2.836,0,0,1-1.521-.386c-.651-.441-.505-1.073.331-1.417a773.7,773.7,0,0,0,70.733-33.191,3.286,3.286,0,0,1,2.731-.011c.757.389.764,1.028.02,1.428a780.141,780.141,0,0,1-71.1,33.365,3.235,3.235,0,0,1-1.189.212" transform="translate(163.723 -14.558)" fill="#3349fc"/>
        <path id="Path_1027" data-name="Path 1027" d="M720.48,124.6q-12.926,0-25.725-.789c-1.057-.063-1.815-.566-1.687-1.119s.956-1,2.139-.882C796.1,128.022,902.1,96.985,1019.4,26.958a3.248,3.248,0,0,1,2.718-.094c.8.365.883,1,.179,1.421C913.974,92.955,814.938,124.6,720.48,124.6" transform="translate(130.576 -10.075)" fill="#3547fb"/>
        <path id="Path_1028" data-name="Path 1028" d="M730.349,139.415a417.964,417.964,0,0,1-51.871-3.216c-1.036-.129-1.68-.671-1.428-1.213s1.289-.892,2.319-.747c115.74,14.449,237.844-20.629,373.263-107.255a3.289,3.289,0,0,1,2.717-.142c.825.354.944.991.274,1.421C939.13,102.777,832.155,139.415,730.349,139.415" transform="translate(127.55 -10.077)" fill="#3745f9"/>
        <path id="Path_1029" data-name="Path 1029" d="M741.015,155.593a424.1,424.1,0,0,1-84.02-8.38c-1-.2-1.488-.785-1.11-1.3a2.738,2.738,0,0,1,2.492-.58c129.95,26.17,266.5-9.936,417.5-110.406,1.117-.691,2.186-1.379,3.256-2.067,1.049-.67,2.093-1.345,3.142-1.994a3.258,3.258,0,0,1,2.718-.122c.818.361.916,1,.233,1.421-1.038.643-2.067,1.307-3.1,1.97-1.084.7-2.172,1.393-3.256,2.063-120.137,79.928-231.478,119.4-337.856,119.4" transform="translate(123.549 -11.549)" fill="#3a43f8"/>
        <path id="Path_1030" data-name="Path 1030" d="M754.489,172.951a447.49,447.49,0,0,1-124.33-17.878c-.931-.267-1.275-.879-.757-1.369a2.993,2.993,0,0,1,2.617-.4c146.269,42.022,292.019,9.133,458.685-103.5,6.219-4.211,12.266-8.237,18.3-12.257l.99-.657a3.211,3.211,0,0,1,2.7-.17c.837.344.983.976.326,1.414l-.984.661c-6.026,4.012-12.072,8.035-18.278,12.242C972.607,132.916,862.209,172.951,754.489,172.951" transform="translate(118.538 -13.822)" fill="#3d41f6"/>
        <path id="Path_1031" data-name="Path 1031" d="M767.219,190.691c-55.9,0-111.707-10.808-169.21-32.656-.857-.326-1.051-.959-.425-1.411a3.236,3.236,0,0,1,2.7-.222c75.536,28.706,148.05,38.135,221.586,28.789,90.7-11.506,183.827-50.773,284.684-120.046L1110.6,62.4c9.022-6.121,17.913-12.155,26.8-18.04a3.252,3.252,0,0,1,2.711-.167c.838.347.977.979.32,1.417-8.883,5.878-17.767,11.905-26.776,18.02l-4.04,2.744c-101.408,69.652-195.235,109.163-286.836,120.783a440.934,440.934,0,0,1-55.558,3.536" transform="translate(112.519 -16.648)" fill="#3f3ff4"/>
        <path id="Path_1032" data-name="Path 1032" d="M780.763,208.974c-71.769,0-142.62-17.548-221.014-54.5-.79-.375-.857-1.011-.146-1.424a3.27,3.27,0,0,1,2.724-.076C648.1,193.41,724.681,210.4,803.054,206.385c102.252-5.2,207.081-46.215,320.5-125.372,12.4-8.744,25.839-17.922,41.073-28.049a3.213,3.213,0,0,1,2.7-.17c.836.344.982.976.325,1.414-15.208,10.117-28.623,19.278-41.014,28.011-114.1,79.64-219.817,120.911-323.205,126.175q-11.362.579-22.67.58" transform="translate(105.34 -19.905)" fill="#433df3"/>
        <path id="Path_1033" data-name="Path 1033" d="M794.347,227.527c-108.924,0-199.642-40.674-267.276-76.76-.752-.4-.739-1.035.025-1.424a3.284,3.284,0,0,1,2.724.014c70.356,37.527,165.764,80.012,280.259,75.867,105.588-3.873,213.346-45.774,329.426-128.1,14.821-10.638,30.879-21.734,50.519-34.915a3.214,3.214,0,0,1,2.705-.177c.844.344,1,.976.34,1.414-19.614,13.167-35.645,24.246-50.449,34.869-116.8,82.833-225.486,125-332.269,128.916q-8.063.292-16,.292" transform="translate(99.198 -23.406)" fill="#463bf2"/>
        <path id="Path_1034" data-name="Path 1034" d="M805.853,246.1c-118.935,0-219.918-48.165-303.48-95.784-.718-.409-.665-1.045.12-1.424a3.292,3.292,0,0,1,2.724.063c86.034,49.025,190.6,98.618,313.672,94.933,108.012-3.256,217.619-46.022,335.078-130.741,20-14.511,40.117-28.532,59.784-41.678a3.272,3.272,0,0,1,2.711-.174c.837.345.983.981.332,1.418-19.646,13.121-39.731,27.125-59.7,41.615C1038.907,199.568,928.349,242.6,819.109,245.9q-6.658.2-13.255.2" transform="translate(94.555 -26.91)" fill="#493af0"/>
        <path id="Path_1035" data-name="Path 1035" d="M816.459,264.623c-126.969,0-235.731-54.171-334.541-113.067-.7-.417-.624-1.053.18-1.421a3.246,3.246,0,0,1,2.718.094C586.03,210.553,697.644,266.02,828.054,262.452c110.091-2.911,221.1-46.521,339.391-133.321,23.878-17.534,47.239-33.935,69.423-48.745a3.25,3.25,0,0,1,2.711-.173c.837.344.982.979.33,1.417-22.158,14.786-45.477,31.163-69.33,48.668-119.014,87.338-230.986,131.226-342.327,134.168-3.941.1-7.886.157-11.792.157" transform="translate(90.706 -30.288)" fill="#4c37ef"/>
        <path id="Path_1036" data-name="Path 1036" d="M826.7,282.976c-141.12,0-260.911-66.473-362.479-129.142-.691-.427-.591-1.063.22-1.421a3.258,3.258,0,0,1,2.718.114c103.567,63.9,226.016,131.813,370.179,128.3,112.058-2.7,224.336-47.185,343.257-135.989,27.22-20.268,53.884-39.111,79.264-56.012a3.211,3.211,0,0,1,2.7-.17c.837.344.983.976.326,1.414-25.333,16.874-51.956,35.69-79.132,55.926C1064.1,235.346,950.843,280.113,837.516,282.844c-3.615.087-7.229.132-10.817.132" transform="translate(87.376 -33.483)" fill="#5036ee"/>
        <path id="Path_1037" data-name="Path 1037" d="M836.489,301.117c-137.73,0-257.31-62.662-366.206-130.73-8.2-5.2-15.374-9.609-21.932-13.489-.7-.417-.624-1.053.173-1.425a3.319,3.319,0,0,1,2.725.091c6.577,3.9,13.779,8.327,22,13.535C584.4,238.58,706.592,302.424,847.386,298.967c113.672-2.779,226.854-48.105,346.021-138.57,30.277-23.026,60.454-44.485,89.682-63.784a3.26,3.26,0,0,1,2.711-.167c.836.347.975.983.318,1.417-29.181,19.263-59.305,40.688-89.536,63.676-119.9,91.021-234.063,136.632-349.017,139.442-3.7.09-7.4.135-11.076.135" transform="translate(84.382 -36.433)" fill="#5334ec"/>
        <path id="Path_1038" data-name="Path 1038" d="M846.154,318.934c-141.1,0-264.187-65.635-366.419-130.34-17.679-11.145-32.542-20.1-46.759-28.2-.718-.409-.666-1.045.118-1.424a3.283,3.283,0,0,1,2.725.063c14.257,8.115,29.161,17.1,46.886,28.272,101.654,64.333,223.957,129.61,363.462,129.61,3.695,0,7.388-.048,11.109-.139,115.354-2.876,229.466-49.1,348.852-141.294,35.625-27.452,68.559-51.024,100.677-72.063a3.245,3.245,0,0,1,2.711-.16c.832.347.969.983.305,1.417-32.057,21-64.932,44.527-100.5,71.938C1089.206,269.38,974.112,315.884,857.462,318.8c-3.773.094-7.561.139-11.308.139" transform="translate(81.48 -39.012)" fill="#5632eb"/>
        <path id="Path_1039" data-name="Path 1039" d="M855.5,336.275c-143.318,0-265.522-65.465-366.6-130.024-25.374-16.21-48.534-29.943-70.812-41.991-.737-.4-.717-1.038.048-1.427a3.309,3.309,0,0,1,2.73.024c22.344,12.089,45.579,25.865,71.025,42.116C595.19,270.959,720.65,337.928,867.464,334.1c116.941-3.026,231.85-50.12,351.29-143.976,39.459-31.02,77.555-58.392,113.234-81.356a3.215,3.215,0,0,1,2.711-.146c.823.35.95.987.279,1.417-35.6,22.911-73.623,50.235-113.008,81.2C1101.8,285.672,985.907,333.058,867.649,336.118c-4.059.1-8.118.157-12.151.157" transform="translate(78.669 -41.039)" fill="#5a30ea"/>
        <path id="Path_1040" data-name="Path 1040" d="M629.964,329.909a3.071,3.071,0,0,1-1.275-.254c-41.107-19.024-83.789-42.943-130.5-73.126-34.084-22.116-65.045-40.063-94.643-54.866-.764-.386-.8-1.025-.061-1.428a3.311,3.311,0,0,1,2.731-.031c29.719,14.865,60.786,32.875,94.976,55.057,46.569,30.093,89.1,53.935,130.044,72.886.8.368.877,1,.166,1.421a2.912,2.912,0,0,1-1.442.341" transform="translate(75.919 -75.692)" fill="#5d2fe8"/>
        <path id="Path_1041" data-name="Path 1041" d="M815.709,352.218q-75.522,0-152.361-23.971c-.917-.281-1.215-.9-.671-1.379a3.032,3.032,0,0,1,2.639-.351c82.97,25.805,161.942,30.707,241.43,15,90.9-17.971,183.661-64.371,275.7-137.914,44.416-35.658,87.768-66.8,128.854-92.567a3.3,3.3,0,0,1,2.718-.128c.818.357.931.993.246,1.421-40.993,25.7-84.252,56.784-128.589,92.375-123.42,98.615-245.583,147.516-369.967,147.516" transform="translate(124.801 -41.901)" fill="#5d2fe8"/>
        <path id="Path_1042" data-name="Path 1042" d="M1286.193,21.681a2.923,2.923,0,0,1-1.435-.334c-.711-.417-.644-1.053.147-1.424,12.583-5.9,28.164-12.25,34.821-14.963l2.458-1.007a3.274,3.274,0,0,1,2.711.16c.664.434.531,1.07-.306,1.417L1322.1,6.551c-6.624,2.7-22.137,9.022-34.614,14.873a3.106,3.106,0,0,1-1.29.257" transform="translate(241.964 -1.414)" fill="#5d2fe8"/>
        <path id="Path_1043" data-name="Path 1043" d="M608.177,332.824a3.02,3.02,0,0,1-1.342-.285c-30.643-15.582-63.218-34.609-99.594-58.174-44.987-29.318-82.453-50.555-117.905-66.834-.8-.369-.877-1-.172-1.424a3.248,3.248,0,0,1,2.724-.091c35.619,16.36,73.231,37.677,118.357,67.085,36.276,23.5,68.753,42.471,99.275,57.993.764.389.784,1.025.04,1.424a2.976,2.976,0,0,1-1.382.306" transform="translate(73.23 -77.901)" fill="#602ce7"/>
        <path id="Path_1044" data-name="Path 1044" d="M821.965,364.131q-76.34,0-154.4-24.318c-.918-.285-1.217-.9-.679-1.383a3.1,3.1,0,0,1,2.644-.354c179.124,55.661,349.775,14.594,521.75-125.529,56.215-45.6,107.706-81.894,157.43-110.951a3.274,3.274,0,0,1,2.724-.076c.791.372.858,1.007.147,1.424C1302,131.92,1250.626,168.128,1194.524,213.638,1071.051,314.247,948.036,364.131,821.965,364.131" transform="translate(125.595 -38.337)" fill="#602ce7"/>
        <path id="Path_1045" data-name="Path 1045" d="M1268.034,47.694a3.038,3.038,0,0,1-1.357-.288c-.757-.389-.762-1.028-.018-1.428,36.873-19.6,71.4-34.588,105.56-45.826a3.167,3.167,0,0,1,2.664.316c.564.472.292,1.094-.6,1.393-33.9,11.152-68.208,26.045-104.87,45.534a3.047,3.047,0,0,1-1.375.3" transform="translate(238.543 0)" fill="#602ce7"/>
        <path id="Path_1046" data-name="Path 1046" d="M1688.278,71.361a2.884,2.884,0,0,1-1.462-.351c-12.63-7.677-25.884-15.157-39.406-22.231-.757-.392-.757-1.032,0-1.424a3.272,3.272,0,0,1,2.724,0c13.588,7.108,26.916,14.626,39.605,22.342.7.42.605,1.059-.205,1.421a3.15,3.15,0,0,1-1.256.243" transform="translate(310.276 -17.816)" fill="#602ce7"/>
        <path id="Path_1047" data-name="Path 1047" d="M592.722,338.414a3.028,3.028,0,0,1-1.4-.313c-24.881-13.712-50.076-28.967-74.885-45.347-54.148-35.612-99-60.362-141.133-77.888-.83-.348-.97-.98-.305-1.418a3.244,3.244,0,0,1,2.711-.16c42.369,17.624,87.41,42.478,141.751,78.212,24.743,16.335,49.857,31.545,74.666,45.211.731.4.7,1.043-.074,1.428a3.069,3.069,0,0,1-1.329.275" transform="translate(70.573 -80.667)" fill="#632ae5"/>
        <path id="Path_1048" data-name="Path 1048" d="M828.823,346.623q-78.542,0-159.172-25.656c-.91-.288-1.2-.91-.644-1.386a3.108,3.108,0,0,1,2.652-.337c182.79,58.01,355.861,16.418,529.038-127.137,109.82-91.031,208.682-149.263,302.244-178.015a3.077,3.077,0,0,1,2.637.358c.538.48.233,1.1-.685,1.38-93.016,28.588-191.453,86.6-300.928,177.355C1080.227,295.752,956.349,346.623,828.823,346.623" transform="translate(125.992 -5.283)" fill="#632ae5"/>
        <path id="Path_1049" data-name="Path 1049" d="M1697.727,79.674a2.881,2.881,0,0,1-1.462-.351A587.157,587.157,0,0,0,1625,42.029c-.818-.358-.931-.994-.247-1.421a3.3,3.3,0,0,1,2.719-.128,591.114,591.114,0,0,1,71.716,37.53c.7.42.605,1.059-.207,1.421a3.142,3.142,0,0,1-1.255.243" transform="translate(306.03 -15.238)" fill="#632ae5"/>
        <path id="Path_1050" data-name="Path 1050" d="M581.062,345.767a2.925,2.925,0,0,1-1.436-.334c-19.148-11.18-37.4-22.529-54.235-33.733-63.55-42.2-115.593-70.17-163.781-88.033-.871-.323-1.077-.952-.459-1.407a3.188,3.188,0,0,1,2.69-.24c48.5,17.982,100.8,46.08,164.58,88.432C545.21,321.625,563.4,332.94,582.5,344.085c.711.417.644,1.053-.146,1.424a3.109,3.109,0,0,1-1.289.257" transform="translate(67.976 -83.986)" fill="#6728e4"/>
        <path id="Path_1051" data-name="Path 1051" d="M834.158,557.591c-52.2,0-105.229-8.365-158.493-25.062-.918-.285-1.21-.907-.665-1.383a3.066,3.066,0,0,1,2.644-.347c85,26.643,165.828,31.9,247.125,16.054a2.727,2.727,0,0,1,2.478.594c.373.521-.132,1.1-1.136,1.3a479.734,479.734,0,0,1-91.953,8.849" transform="translate(127.123 -200.906)" fill="#6728e4"/>
        <path id="Path_1052" data-name="Path 1052" d="M947.614,486.613a2.7,2.7,0,0,1-1.594-.441c-.6-.462-.372-1.087.512-1.4,43.471-15.408,85.694-36.586,129.08-64.743a3.254,3.254,0,0,1,2.71-.153c.831.351.964.984.292,1.417-43.631,28.317-86.126,49.628-129.917,65.146a3.282,3.282,0,0,1-1.083.173" transform="translate(178.173 -158.881)" fill="#6728e4"/>
        <path id="Path_1053" data-name="Path 1053" d="M1076.53,258.673a3.254,3.254,0,0,1-1.143-.194c-.857-.33-1.042-.963-.412-1.411,20.63-14.646,40.508-30.061,59.072-45.813,109.7-92.514,209.014-151.278,303.619-179.644a3.06,3.06,0,0,1,2.631.375c.531.483.206,1.1-.718,1.376-94.032,28.2-192.9,86.73-302.25,178.953-18.617,15.8-38.555,31.256-59.245,45.948a2.8,2.8,0,0,1-1.554.41" transform="translate(202.461 -11.918)" fill="#6728e4"/>
        <path id="Path_1054" data-name="Path 1054" d="M1701.617,87.417a2.886,2.886,0,0,1-1.449-.344c-31.752-18.976-63.588-34.22-94.643-45.309-.878-.316-1.1-.941-.505-1.4a3.228,3.228,0,0,1,2.683-.264c31.321,11.186,63.406,26.546,95.363,45.649.7.42.625,1.056-.179,1.421a3.074,3.074,0,0,1-1.27.25" transform="translate(302.332 -15.115)" fill="#6728e4"/>
        <path id="Path_1055" data-name="Path 1055" d="M572.446,355.008a2.961,2.961,0,0,1-1.463-.347c-12.238-7.41-24.517-15.262-36.483-23.339-74.014-49.464-131.5-79.4-186.411-97.07-.91-.291-1.188-.913-.63-1.386a3.093,3.093,0,0,1,2.649-.33c55.32,17.8,113.122,47.879,187.435,97.545,11.933,8.053,24.164,15.88,36.363,23.258.69.424.6,1.06-.2,1.425a3.168,3.168,0,0,1-1.261.243" transform="translate(65.409 -87.981)" fill="#6a26e3"/>
        <path id="Path_1056" data-name="Path 1056" d="M838.24,584.77c-48.288,0-97.807-7.233-147.438-21.553-.937-.267-1.275-.882-.757-1.368a3.013,3.013,0,0,1,2.618-.4c54.361,15.685,108.543,22.793,161.019,21.049,1.049.021,1.973.389,2.046.945s-.744,1.035-1.807,1.07q-7.813.255-15.68.254" transform="translate(129.963 -212.517)" fill="#6a26e3"/>
        <path id="Path_1057" data-name="Path 1057" d="M977.614,506.08a2.851,2.851,0,0,1-1.5-.375c-.671-.434-.538-1.07.291-1.417a622.167,622.167,0,0,0,86.26-44.84,3.255,3.255,0,0,1,2.717-.122c.818.358.918,1,.232,1.421a625.6,625.6,0,0,1-86.79,45.111,3.192,3.192,0,0,1-1.21.222" transform="translate(183.825 -173.81)" fill="#6a26e3"/>
        <path id="Path_1058" data-name="Path 1058" d="M1108.638,257.4a3.25,3.25,0,0,1-1.062-.167c-.891-.306-1.137-.935-.546-1.4,9.247-7.306,20.138-16.022,30.782-25.277,108.908-93.73,208.542-153.022,304.61-181.267a3.031,3.031,0,0,1,2.624.386c.525.483.192,1.1-.737,1.372-95.469,28.071-194.645,87.13-303.2,180.555-10.683,9.282-21.6,18.02-30.868,25.343a2.685,2.685,0,0,1-1.606.452" transform="translate(208.51 -18.615)" fill="#6a26e3"/>
        <path id="Path_1059" data-name="Path 1059" d="M1702.911,95.384a2.954,2.954,0,0,1-1.429-.33c-39.172-22.6-76.76-38.8-114.907-49.506-.944-.264-1.3-.876-.792-1.365a3.032,3.032,0,0,1,2.612-.413c38.548,10.825,76.472,27.156,115.943,49.929.718.414.657,1.05-.132,1.425a3.127,3.127,0,0,1-1.295.26" transform="translate(298.727 -16.527)" fill="#6a26e3"/>
        <path id="Path_1060" data-name="Path 1060" d="M566.828,366.3a2.881,2.881,0,0,1-1.5-.375c-7.2-4.662-14.658-9.484-21.993-14.434-83-56.006-147.239-88.45-208.263-105.206-.944-.26-1.31-.868-.811-1.362a2.955,2.955,0,0,1,2.6-.423C398.4,261.4,463.022,294.015,546.384,350.256c7.316,4.937,14.75,9.752,21.945,14.407.671.431.538,1.067-.291,1.417a3.173,3.173,0,0,1-1.21.222" transform="translate(62.935 -92.524)" fill="#6e25e1"/>
        <path id="Path_1061" data-name="Path 1061" d="M992.7,526.68a2.9,2.9,0,0,1-1.469-.354c-.691-.421-.591-1.06.22-1.421a616.5,616.5,0,0,0,74.732-39.812,3.252,3.252,0,0,1,2.71-.126c.818.355.923.994.241,1.417a618.708,618.708,0,0,1-75.185,40.056,3.143,3.143,0,0,1-1.249.24" transform="translate(186.667 -183.519)" fill="#6e25e1"/>
        <path id="Path_1062" data-name="Path 1062" d="M1130.363,263.164a3.262,3.262,0,0,1-1.03-.157c-.9-.3-1.17-.92-.6-1.389,5-4.13,9.819-8.258,14.823-12.586,110.052-96.381,211.466-156.569,310.037-184a2.99,2.99,0,0,1,2.605.417c.5.49.146,1.1-.8,1.362-97.927,27.254-198.857,87.2-308.543,183.261-5.024,4.346-9.853,8.487-14.87,12.624a2.646,2.646,0,0,1-1.628.469" transform="translate(212.604 -24.576)" fill="#6e25e1"/>
        <path id="Path_1063" data-name="Path 1063" d="M1702.692,104.056a2.958,2.958,0,0,1-1.4-.316c-45.113-24.968-88.884-41.542-133.8-50.673-1-.205-1.488-.789-1.1-1.306a2.736,2.736,0,0,1,2.5-.577c45.472,9.241,89.7,25.979,135.213,51.173.731.4.7,1.042-.08,1.424a3.041,3.041,0,0,1-1.322.275" transform="translate(295.092 -19.352)" fill="#6e25e1"/>
        <path id="Path_1064" data-name="Path 1064" d="M565.8,380.646a2.848,2.848,0,0,1-1.5-.375c-3.993-2.584-8.119-5.26-11.993-8-93.315-63.405-162.127-97-230.077-112.313-.976-.223-1.429-.817-1.009-1.327a2.822,2.822,0,0,1,2.537-.528c68.594,15.463,137.865,49.245,231.625,112.953,3.853,2.717,7.953,5.378,11.919,7.948.671.434.538,1.066-.291,1.417a3.171,3.171,0,0,1-1.21.222" transform="translate(60.491 -97.687)" fill="#7224e0"/>
        <path id="Path_1065" data-name="Path 1065" d="M1004.209,547.087a2.962,2.962,0,0,1-1.449-.34c-.7-.417-.624-1.056.173-1.424a617.224,617.224,0,0,0,72.44-39.611,3.247,3.247,0,0,1,2.71-.139c.824.354.943.99.266,1.417a621.316,621.316,0,0,1-72.866,39.847,3.145,3.145,0,0,1-1.275.25" transform="translate(188.836 -191.322)" fill="#7224e0"/>
        <path id="Path_1066" data-name="Path 1066" d="M1149.014,270.132a3.282,3.282,0,0,1-.949-.132c-.932-.274-1.257-.889-.725-1.372a29.775,29.775,0,0,1,2.611-2.21C1262.2,166.175,1370.818,102.7,1472.712,77.822a2.848,2.848,0,0,1,2.565.486c.451.5.033,1.1-.931,1.341-101.169,24.7-209.228,87.9-321.167,187.867a28.544,28.544,0,0,0-2.491,2.105,2.554,2.554,0,0,1-1.674.511" transform="translate(216.118 -29.425)" fill="#7224e0"/>
        <path id="Path_1067" data-name="Path 1067" d="M1701.644,113.35a3,3,0,0,1-1.363-.3c-51.14-26.757-103.141-43.322-154.566-49.242-1.043-.118-1.7-.657-1.469-1.2s1.2-.9,2.292-.767c52.163,6,104.8,22.748,156.466,49.784.758.392.758,1.032,0,1.424a3,3,0,0,1-1.362.3" transform="translate(290.937 -23.405)" fill="#7224e0"/>
        <path id="Path_1068" data-name="Path 1068" d="M573.937,401.75a2.863,2.863,0,0,1-1.508-.378c-3.07-2.008-6.013-4.016-9.029-6.073l-2.359-1.605c-102.1-69.947-177.209-105.368-251.151-118.452-1.01-.177-1.548-.75-1.21-1.278a2.634,2.634,0,0,1,2.446-.633c74.726,13.219,150.381,48.849,252.979,119.137l2.352,1.605c3,2.046,5.933,4.043,8.989,6.041.664.434.525,1.07-.305,1.417a3.142,3.142,0,0,1-1.2.219" transform="translate(58.138 -103.464)" fill="#7621df"/>
        <path id="Path_1069" data-name="Path 1069" d="M1015.882,566.06a2.952,2.952,0,0,1-1.428-.33c-.718-.413-.658-1.049.133-1.424a604.348,604.348,0,0,0,73.017-41.227,3.235,3.235,0,0,1,2.711-.16c.83.348.97.984.305,1.417a607.854,607.854,0,0,1-73.443,41.464,3.123,3.123,0,0,1-1.3.26" transform="translate(191.035 -197.893)" fill="#7621df"/>
        <path id="Path_1070" data-name="Path 1070" d="M1166.524,275.785a3.41,3.41,0,0,1-.977-.135c-.916-.281-1.221-.9-.691-1.383C1285.538,166.341,1402.938,102.742,1513.8,85.239a2.565,2.565,0,0,1,2.406.674c.306.535-.272,1.1-1.29,1.258-109.9,17.35-226.555,80.64-346.726,188.118a2.634,2.634,0,0,1-1.667.5" transform="translate(219.417 -32.257)" fill="#7621df"/>
        <path id="Path_1071" data-name="Path 1071" d="M1702.517,124.062a3.079,3.079,0,0,1-1.315-.271C1639.339,93.552,1578.38,78.8,1515.135,78.8q-4.155,0-8.338.083c-1.142,0-1.96-.41-2-.969s.791-1.025,1.854-1.046c66.381-1.365,132.721,13.941,197.182,45.448.777.378.823,1.018.092,1.424a2.962,2.962,0,0,1-1.408.319" transform="translate(283.513 -29.071)" fill="#7621df"/>
        <path id="Path_1072" data-name="Path 1072" d="M579.889,421.828a2.852,2.852,0,0,1-1.515-.382c-1.449-.963-2.857-1.924-4.258-2.887s-2.777-1.907-4.219-2.859C459.06,339.28,377.717,302.236,297.882,291.818c-1.036-.135-1.66-.685-1.408-1.223a2.415,2.415,0,0,1,2.339-.736c81.841,10.683,161.257,46.785,274.133,124.608,1.428.945,2.837,1.908,4.239,2.87s2.777,1.908,4.219,2.859c.657.438.518,1.07-.32,1.417a3.19,3.19,0,0,1-1.2.216" transform="translate(55.847 -109.729)" fill="#791fdd"/>
        <path id="Path_1073" data-name="Path 1073" d="M1035.5,581.1a3.01,3.01,0,0,1-1.375-.3c-.744-.4-.738-1.035.026-1.425a632.207,632.207,0,0,0,62.262-36.807,3.253,3.253,0,0,1,2.71-.174c.837.344.983.98.332,1.417a636.3,636.3,0,0,1-62.606,37,3.005,3.005,0,0,1-1.349.288" transform="translate(194.732 -205.268)" fill="#791fdd"/>
        <path id="Path_1074" data-name="Path 1074" d="M1184.364,282.04a3.381,3.381,0,0,1-.977-.139c-.916-.281-1.222-.9-.685-1.379,125.221-111.191,248-172.717,364.931-182.875,70.539-6.115,140.694,6.225,208.589,36.7.81.361.9,1,.207,1.421a3.274,3.274,0,0,1-2.719.108c-66.985-30.072-136.124-42.259-205.446-36.242-115.754,10.054-237.625,71.257-362.24,181.906a2.614,2.614,0,0,1-1.661.5" transform="translate(222.779 -36.393)" fill="#791fdd"/>
        <path id="Path_1075" data-name="Path 1075" d="M580.932,439.1a2.991,2.991,0,0,1-1.362-.3l-.964-.5C458.217,354.538,373.6,317.4,286.369,310.011c-1.057-.09-1.767-.608-1.6-1.157s1.184-.92,2.213-.837c88.326,7.487,173.656,44.85,294.53,128.964l.784.4c.757.392.757,1.032,0,1.424a2.99,2.99,0,0,1-1.362.3" transform="translate(53.647 -116.611)" fill="#7d1ddc"/>
        <path id="Path_1076" data-name="Path 1076" d="M1071.828,589.234a3.123,3.123,0,0,1-1.241-.236c-.818-.362-.918-1-.233-1.421,6.245-3.86,12.7-7.851,19.035-12.072a3.2,3.2,0,0,1,2.7-.17c.837.344.983.976.325,1.414-6.379,4.249-12.856,8.255-19.116,12.128a2.917,2.917,0,0,1-1.474.358" transform="translate(201.576 -217.739)" fill="#7d1ddc"/>
        <path id="Path_1077" data-name="Path 1077" d="M1203.008,290.424a3.362,3.362,0,0,1-.989-.142c-.91-.285-1.208-.9-.665-1.383C1318.4,186.257,1434.427,128.55,1546.2,117.373c66.367-6.632,132.382,3.005,196.211,28.655.844.34,1,.972.352,1.414a3.2,3.2,0,0,1-2.7.184c-62.926-25.284-127.912-34.8-193.136-28.272-110.643,11.062-225.8,68.453-342.261,170.581a2.617,2.617,0,0,1-1.655.49" transform="translate(226.291 -43.669)" fill="#7d1ddc"/>
        <path id="Path_1078" data-name="Path 1078" d="M579.218,454.917a2.77,2.77,0,0,1-1.534-.4C454.362,369.282,366.715,332.964,275.166,329.163c-1.062-.042-1.854-.528-1.767-1.084s.864-1.007,2.072-.924C368.249,331,456.7,367.552,580.753,453.3c.644.445.478,1.077-.373,1.411a3.17,3.17,0,0,1-1.162.205" transform="translate(51.509 -123.857)" fill="#811cdb"/>
        <path id="Path_1079" data-name="Path 1079" d="M1223.281,297.3a3.3,3.3,0,0,1-1-.146c-.911-.288-1.2-.91-.645-1.386,107.952-92.9,216.071-146.2,321.347-158.446,61.683-7.177,123.106-.316,182.6,20.379.884.309,1.123.935.538,1.4a3.156,3.156,0,0,1-2.678.281c-58.58-20.383-119.008-27.15-179.622-20.091-104.211,12.118-211.5,65.115-318.887,157.525a2.638,2.638,0,0,1-1.647.483" transform="translate(230.11 -50.947)" fill="#811cdb"/>
        <path id="Path_1080" data-name="Path 1080" d="M575.646,469.919a2.8,2.8,0,0,1-1.528-.4c-124.742-85.167-214.41-119.908-309.5-119.908-1.063,0-1.926-.452-1.926-1.007s.863-1.007,1.926-1.007c96.445,0,187,34.966,312.556,120.7.651.441.492,1.073-.359,1.411a3.124,3.124,0,0,1-1.169.208" transform="translate(49.493 -131.602)" fill="#8419d9"/>
        <path id="Path_1081" data-name="Path 1081" d="M1246.465,301.079a3.374,3.374,0,0,1-1.031-.153c-.9-.3-1.169-.92-.6-1.393,155.1-128.68,309.6-172.557,459.269-130.434.937.264,1.288.876.783,1.369a3.04,3.04,0,0,1-2.617.409c-147.558-41.542-300.351,2.109-454.167,129.732a2.7,2.7,0,0,1-1.634.469" transform="translate(234.478 -58.156)" fill="#8419d9"/>
        <path id="Path_1082" data-name="Path 1082" d="M570.279,409.961a2.823,2.823,0,0,1-1.522-.389C443.849,325.645,352.766,293.009,254.388,296.813c-1.2.045-1.987-.375-2.067-.928s.718-1.042,1.774-1.081C354.015,290.883,446,323.8,571.8,408.334c.657.438.505,1.074-.339,1.414a3.2,3.2,0,0,1-1.182.212m972.587-161.548a3.079,3.079,0,0,1-1.269-.25c-.8-.369-.883-1-.18-1.421,108.8-64.84,217.931-87.088,324.329-66.129,1,.2,1.5.778,1.129,1.3a2.722,2.722,0,0,1-2.485.59c-104.763-20.636-212.429,1.421-320.076,65.566a2.89,2.89,0,0,1-1.448.344" transform="translate(47.538 -65.49)" fill="#8817d8"/>
        <path id="Path_1083" data-name="Path 1083" d="M609.146,422.733a2.813,2.813,0,0,1-1.508-.382c-124.9-82.291-217.354-112.487-319.061-104.3-1.116.059-2.039-.3-2.2-.844s.559-1.063,1.614-1.15c103.3-8.338,196.784,22.105,322.662,105.045.664.434.524,1.07-.312,1.414a3.118,3.118,0,0,1-1.2.219M1.928,417.486a3.012,3.012,0,0,1-1.356-.291c-.757-.393-.764-1.028-.013-1.424,24.484-12.927,44.469-22.971,62.9-31.6a3.3,3.3,0,0,1,2.724.076c.712.417.645,1.053-.145,1.424C47.659,394.276,27.726,404.292,3.3,417.188a2.976,2.976,0,0,1-1.368.3m1627.4-167.092a3.051,3.051,0,0,1-1.362-.292c-.751-.392-.757-1.032-.007-1.427,81.171-42.665,163.391-61.258,244.448-55.245,1.049.076,1.787.587,1.634,1.14s-1.056.935-2.179.854c-79.722-5.888-160.9,12.479-241.165,54.675a3.025,3.025,0,0,1-1.369.3" transform="translate(0 -72.815)" fill="#8c15d7"/>
        <path id="Path_1084" data-name="Path 1084" d="M5.656,437.086a3,3,0,0,1-1.348-.288c-.764-.389-.771-1.028-.027-1.424,30.7-16.366,59.982-30.739,87.037-42.721a3.3,3.3,0,0,1,2.725.118c.685.427.585,1.063-.226,1.424-26.976,11.937-56.169,26.267-86.785,42.588a3,3,0,0,1-1.376.3m592.377-2.62a2.843,2.843,0,0,1-1.495-.372C471.616,353.958,377.43,326.8,271.472,340.353c-1.023.139-2.08-.194-2.333-.74s.379-1.087,1.415-1.219c107.607-13.781,202.942,13.58,328.974,94.429.67.431.551,1.066-.279,1.417a3.121,3.121,0,0,1-1.216.226M1656.953,259.5a2.954,2.954,0,0,1-1.421-.327c-.718-.413-.664-1.049.119-1.424,61.3-29.248,123.5-44.774,184.877-46.146,1.023-.07,1.954.41,2.007.966s-.777,1.025-1.847,1.049c-60.441,1.352-121.826,16.7-182.432,45.618a3.1,3.1,0,0,1-1.3.264" transform="translate(0.703 -80.112)" fill="#8f13d5"/>
        <path id="Path_1085" data-name="Path 1085" d="M13.926,454.358a3.057,3.057,0,0,1-1.362-.291c-.751-.393-.758-1.032-.007-1.428C52.873,431.44,88.8,414.556,122.4,401.021a3.22,3.22,0,0,1,2.7.184c.651.441.491,1.074-.352,1.414-33.467,13.479-69.271,30.3-109.462,51.444a3.015,3.015,0,0,1-1.368.3m570.41-8.47a2.918,2.918,0,0,1-1.475-.358C456.9,367.642,359.7,344.384,247.357,365.259a2.687,2.687,0,0,1-2.465-.615c-.353-.525.172-1.1,1.175-1.289,114.1-21.188,212.556,2.231,339.743,80.876.685.424.585,1.059-.232,1.421a3.138,3.138,0,0,1-1.243.236M1678.523,272.342a2.885,2.885,0,0,1-1.475-.358c-.684-.427-.585-1.063.232-1.421,48.429-21.331,97.894-34.063,147.033-37.84,1.057-.069,2.033.3,2.186.851s-.57,1.063-1.627,1.143c-48.416,3.724-97.235,16.3-145.107,37.388a3.126,3.126,0,0,1-1.242.236" transform="translate(2.26 -88.106)" fill="#9311d4"/>
        <path id="Path_1086" data-name="Path 1086" d="M25.6,469.565a3.054,3.054,0,0,1-1.375-.3c-.744-.4-.738-1.035.02-1.428,124.761-64.3,218.947-92.3,306.137-90.729,76.5,1.365,149.95,25.229,238.161,77.367.712.417.632,1.053-.165,1.421a3.253,3.253,0,0,1-2.718-.087c-87.455-51.687-160.062-75.339-235.411-76.686-85.887-1.554-179.355,26.267-303.293,90.152a3.085,3.085,0,0,1-1.356.288M1696.747,286.94a2.852,2.852,0,0,1-1.515-.382c-.657-.438-.518-1.073.319-1.417a442.619,442.619,0,0,1,120.476-31.152c1.077-.111,2.067.236,2.28.782s-.453,1.081-1.5,1.192a436.709,436.709,0,0,0-118.869,30.763,3.218,3.218,0,0,1-1.2.216" transform="translate(4.461 -96.152)" fill="#970fd3"/>
        <path id="Path_1087" data-name="Path 1087" d="M41.007,482.695a3.034,3.034,0,0,1-1.4-.309c-.731-.4-.712-1.042.059-1.428,116.444-58.364,205.46-83.875,288.6-82.9,70.28.872,139.451,21.362,217.678,64.479.731.406.7,1.042-.072,1.428a3.311,3.311,0,0,1-2.731-.039c-77.47-42.7-145.777-63-214.961-63.853q-2.373-.026-4.744-.028c-80.7,0-167.682,25.521-281.1,82.37a3.106,3.106,0,0,1-1.335.278M1717.55,300.678a2.761,2.761,0,0,1-1.575-.424c-.618-.455-.412-1.084.459-1.407a435.905,435.905,0,0,1,94.491-23.749,2.359,2.359,0,0,1,2.339.729c.265.542-.366,1.087-1.4,1.226a429.84,429.84,0,0,0-93.2,23.44,3.286,3.286,0,0,1-1.116.184" transform="translate(7.362 -104.14)" fill="#9b0fd0"/>
        <path id="Path_1088" data-name="Path 1088" d="M61.112,494.509a3.009,3.009,0,0,1-1.423-.323c-.718-.41-.664-1.05.12-1.428,154.9-74.5,264.891-90.257,379.614-54.376.916.285,1.209.9.664,1.383a3.091,3.091,0,0,1-2.644.347C324.474,404.788,215.817,420.466,62.42,494.245a3.128,3.128,0,0,1-1.308.264M1747.3,312.895a2.585,2.585,0,0,1-1.667-.5c-.538-.483-.22-1.1.7-1.376a441.684,441.684,0,0,1,49.087-11.877,2.6,2.6,0,0,1,2.451.621c.352.528-.186,1.1-1.19,1.282a437.494,437.494,0,0,0-48.422,11.718,3.283,3.283,0,0,1-.964.135" transform="translate(11.151 -113.231)" fill="#9e0ccf"/>
        <path id="Path_1089" data-name="Path 1089" d="M88.841,575.139a2.929,2.929,0,0,1-1.469-.351c-.69-.424-.6-1.059.213-1.424,113.481-50.767,202.823-67.518,289.7-54.355,1.023.156,1.608.716,1.315,1.251a2.492,2.492,0,0,1-2.392.687c-85.5-12.965-173.734,3.672-286.111,53.953a3.205,3.205,0,0,1-1.256.24" transform="translate(16.374 -194.868)" fill="#a209ce"/>
        <path id="Path_1090" data-name="Path 1090" d="M134.568,574.81a2.739,2.739,0,0,1-1.562-.417c-.624-.452-.431-1.081.433-1.407,64.579-24.4,122.043-36.6,175.675-37.3,1.2.028,1.947.427,1.973.983s-.818,1.018-1.88,1.032c-52.827.688-109.581,12.763-173.509,36.916a3.268,3.268,0,0,1-1.13.191" transform="translate(24.99 -202.812)" fill="#a606cc"/>
      </g>
    </g>
  </g>
</svg>
