<svg id="Group_3632" data-name="Group 3632" xmlns="http://www.w3.org/2000/svg" width="18.207" height="20.23" viewBox="0 0 18.207 20.23">
  <g id="Group_3544" data-name="Group 3544">
    <path id="Path_4618" data-name="Path 4618" d="M1430.134,186.23a9.109,9.109,0,0,1-9.134-9.1V175.1a9.136,9.136,0,0,1,18.2-1.139,1.011,1.011,0,1,1-2.007.255,7.114,7.114,0,0,0-14.169.884v2.023a7.115,7.115,0,0,0,14.169.886,1.011,1.011,0,1,1,2.007.251A9.129,9.129,0,0,1,1430.134,186.23Z" transform="translate(-1421 -166)" fill="#006fff"/>
    <path id="Path_4619" data-name="Path 4619" d="M1430.1,183.161a6.05,6.05,0,0,1-5.948-4.855,1.011,1.011,0,1,1,1.981-.4,4.047,4.047,0,0,0,8.012-.809v-2.023a4.047,4.047,0,0,0-8.011-.811,1.012,1.012,0,0,1-1.983-.4,6.069,6.069,0,0,1,12.017,1.212v2.023A6.075,6.075,0,0,1,1430.1,183.161Z" transform="translate(-1420.964 -165.966)" fill="#006fff"/>
    <path id="Path_4620" data-name="Path 4620" d="M1430.064,180.092a3.038,3.038,0,0,1-3.034-3.035v-2.023a3.034,3.034,0,1,1,6.069,0v2.023A3.037,3.037,0,0,1,1430.064,180.092Zm0-6.069a1.013,1.013,0,0,0-1.011,1.011v2.023a1.011,1.011,0,1,0,2.023,0v-2.023A1.012,1.012,0,0,0,1430.064,174.023Z" transform="translate(-1420.931 -165.931)" fill="#006fff"/>
  </g>
</svg>
