<svg xmlns="http://www.w3.org/2000/svg" width="12" height="15" viewBox="0 0 12 15">
  <g id="Group_5069" data-name="Group 5069" transform="translate(-0.027)">
    <g id="Group_5070" data-name="Group 5070" transform="translate(0.027)">
      <path id="Path_5592" data-name="Path 5592" d="M12.25,15h-6A2.252,2.252,0,0,1,4,12.75a.75.75,0,0,1,1.5,0,.751.751,0,0,0,.75.75h6a.751.751,0,0,0,.75-.75V2.25a.751.751,0,0,0-.75-.75h-6a.751.751,0,0,0-.75.75.75.75,0,1,1-1.5,0A2.252,2.252,0,0,1,6.25,0h6A2.252,2.252,0,0,1,14.5,2.25v10.5A2.252,2.252,0,0,1,12.25,15" transform="translate(-2.5)" fill="#006fff"/>
      <path id="Path_5593" data-name="Path 5593" d="M8.25,19.5H.75a.75.75,0,1,1,0-1.5h7.5a.75.75,0,0,1,0,1.5" transform="translate(0 -11.25)" fill="#006fff"/>
      <path id="Path_5594" data-name="Path 5594" d="M3,18a.747.747,0,0,1-.53-.22L.22,15.53a.75.75,0,0,1,0-1.06l2.25-2.25a.75.75,0,0,1,1.06,1.06L1.811,15l1.72,1.72A.75.75,0,0,1,3,18" transform="translate(0 -7.5)" fill="#006fff"/>
    </g>
  </g>
</svg>
