<svg xmlns="http://www.w3.org/2000/svg"  viewBox="0 0 10.246 17.077">
  <g id="icon-price" transform="translate(6212.4 824.262)">
    <g id="Group_3742" data-name="Group 3742" transform="translate(-6212.4 -822.554)">
      <path id="Path_4791" data-name="Path 4791" d="M254.977,527.662h-4.269a1.708,1.708,0,1,1,0-3.415h4.269a.854.854,0,1,0,0-1.708h-1.708a4.269,4.269,0,0,1,0-8.539h4.269a1.708,1.708,0,0,1,0,3.416h-4.269a.854.854,0,1,0,0,1.708h1.708a4.269,4.269,0,0,1,0,8.539Z" transform="translate(-249 -514)" />
    </g>
    <g id="Group_3743" data-name="Group 3743" transform="translate(-6208.984 -824.262)">
      <path id="Path_4792" data-name="Path 4792" d="M252.708,518.123A1.707,1.707,0,0,1,251,516.415v-1.708a1.708,1.708,0,0,1,3.415,0v1.708A1.707,1.707,0,0,1,252.708,518.123Z" transform="translate(-251 -513)" />
    </g>
    <g id="Group_3744" data-name="Group 3744" transform="translate(-6208.984 -812.308)">
      <path id="Path_4793" data-name="Path 4793" d="M252.708,525.123A1.707,1.707,0,0,1,251,523.415v-1.708a1.708,1.708,0,1,1,3.415,0v1.708A1.707,1.707,0,0,1,252.708,525.123Z" transform="translate(-251 -520)" />
    </g>
  </g>
</svg>
