<svg id="icon-discord" xmlns="http://www.w3.org/2000/svg" xmlns:xlink="http://www.w3.org/1999/xlink" width="17.425" height="13.276" viewBox="0 0 17.425 13.276">
  <defs>
    <clipPath id="clip-path">
      <rect id="Rectangle_45" data-name="Rectangle 45" width="17.425" height="13.276"/>
    </clipPath>
  </defs>
  <g id="Group_19" data-name="Group 19">
    <path id="Path_11" data-name="Path 11" d="M0,10.218V8.846A1.061,1.061,0,0,0,.05,8.5c0-.082,0-.164.01-.245C.075,8.1.1,7.945.115,7.79c.015-.126.028-.253.042-.379,0-.005,0-.011,0-.016.018-.1.037-.208.055-.312s.032-.2.049-.3c.01-.059.021-.118.035-.176.029-.126.06-.252.089-.378S.437,6,.466,5.885s.059-.2.089-.3c.044-.148.085-.3.131-.443s.1-.3.15-.452c.033-.1.066-.192.1-.286q.1-.252.2-.5c.068-.16.134-.321.21-.478.127-.262.258-.523.394-.781s.275-.51.423-.759.306-.485.46-.727a.174.174,0,0,1,.083-.072c.14-.059.276-.128.417-.187s.261-.1.392-.154c.1-.041.209-.082.315-.12C3.914.6,3.994.573,4.073.547s.158-.053.238-.078c.137-.043.273-.086.411-.126.1-.028.193-.05.289-.075L5.244.207l.18-.042L5.669.108c.084-.019.169-.037.253-.053S6.114.019,6.211,0a.082.082,0,0,1,.1.046c.092.178.186.356.276.535.055.11.1.224.158.341.044,0,.088,0,.13-.007C6.987.9,7.1.876,7.222.861s.26-.027.39-.035c.35-.023.7-.052,1.052-.044.256.006.512.005.767.017.22.01.439.032.658.054.164.017.328.043.491.064.045.006.091.005.134.007.055-.119.1-.232.158-.343.087-.177.178-.353.267-.529A.081.081,0,0,1,11.232,0c.1.017.2.033.3.053.079.015.158.035.237.051s.144.024.215.041c.112.027.223.059.334.089l.14.036c.065.016.131.029.2.048.107.03.212.063.318.1.083.025.166.048.248.076.114.039.226.082.34.122.136.049.275.092.409.146.239.1.476.2.713.3a.252.252,0,0,1,.126.093c.1.161.209.318.309.48.136.219.271.438.4.661.113.2.217.4.321.6s.2.394.291.594c.086.184.165.372.244.559.058.139.111.28.165.421s.1.262.143.394c.029.084.05.17.076.254.042.133.088.266.127.4.048.164.09.329.134.493.013.049.027.1.037.149.015.071.027.143.041.214s.024.122.036.183c.021.1.043.205.063.309.015.077.026.155.038.232.021.128.045.256.063.385s.031.237.042.356c.022.222.042.443.063.665.007.07.013.14.019.21v1.6a.489.489,0,0,0-.013.063c-.014.2-.029.4-.04.6a.141.141,0,0,1-.064.122c-.093.063-.182.131-.274.2-.3.21-.6.411-.921.593-.253.145-.505.293-.764.427s-.5.243-.758.36c-.148.068-.3.128-.45.19-.135.055-.27.109-.406.16s-.268.1-.4.143c-.1.033-.194.062-.29.095a.112.112,0,0,1-.152-.048c-.152-.225-.31-.446-.451-.676s-.26-.463-.392-.694c-.042-.073-.029-.106.053-.14.146-.06.3-.112.439-.178a8.851,8.851,0,0,0,.836-.428c.072-.043.078-.081.013-.134s-.132-.1-.192-.15a.128.128,0,0,0-.149-.02c-.2.084-.4.172-.6.256-.1.04-.2.074-.294.109s-.173.057-.259.085-.184.06-.277.087-.2.055-.3.08q-.192.049-.384.094c-.068.016-.137.028-.206.042-.087.018-.173.039-.261.054s-.2.027-.306.042c-.123.018-.246.044-.37.054-.244.02-.488.036-.732.044A10.626,10.626,0,0,1,7.681,11.7c-.1-.01-.2-.023-.3-.035-.011,0-.021-.005-.032-.007l-.312-.052c-.088-.014-.176-.026-.264-.041-.056-.01-.111-.023-.166-.036-.076-.018-.151-.039-.227-.056s-.134-.023-.2-.041c-.182-.052-.363-.106-.543-.164-.2-.063-.392-.127-.584-.2-.221-.084-.438-.181-.657-.27a.129.129,0,0,0-.132,0c-.077.058-.154.118-.229.179-.053.043-.05.077.007.113.036.023.075.042.114.061.2.1.388.206.587.3s.4.172.6.255c.073.03.089.061.054.127-.092.172-.181.346-.279.514a8.7,8.7,0,0,1-.57.869.11.11,0,0,1-.145.049c-.069-.022-.138-.043-.206-.067-.144-.051-.288-.1-.432-.157-.221-.083-.445-.163-.663-.255s-.459-.2-.683-.31c-.3-.151-.6-.306-.9-.473-.352-.2-.694-.418-1.028-.648-.122-.084-.24-.172-.359-.259-.025-.018-.052-.036-.055-.073-.01-.149-.022-.3-.033-.446,0-.054,0-.109-.007-.163s-.028-.132-.042-.2m7.409-2.93C7.4,7.194,7.379,7.1,7.371,7a1.482,1.482,0,0,0-.108-.421,1.659,1.659,0,0,0-.253-.438,1.557,1.557,0,0,0-.61-.471,1.363,1.363,0,0,0-.966-.054,1.423,1.423,0,0,0-.36.162,1.626,1.626,0,0,0-.558.59,1.784,1.784,0,0,0-.17.416c-.027.1-.032.2-.053.3a1.552,1.552,0,0,0,.022.607,1.607,1.607,0,0,0,.121.383,1.975,1.975,0,0,0,.2.346,1.573,1.573,0,0,0,.643.52,1.589,1.589,0,0,0,.485.121,1.187,1.187,0,0,0,.315-.024,1.4,1.4,0,0,0,.57-.233,1.737,1.737,0,0,0,.71-1.1,3.947,3.947,0,0,0,.049-.4m5.766.007a2.248,2.248,0,0,0,0-.253c-.01-.085-.04-.168-.054-.253A1.175,1.175,0,0,0,13,6.465a1.69,1.69,0,0,0-.584-.674,1.512,1.512,0,0,0-.655-.237,1.3,1.3,0,0,0-.608.077,1.581,1.581,0,0,0-.838.711,1.862,1.862,0,0,0-.222.6,1.944,1.944,0,0,0-.03.414,1.992,1.992,0,0,0,.05.377,1.686,1.686,0,0,0,.152.43,1.614,1.614,0,0,0,.795.767,1.455,1.455,0,0,0,.55.125,2.121,2.121,0,0,0,.258-.028,1.2,1.2,0,0,0,.518-.194,1.614,1.614,0,0,0,.6-.67,1.48,1.48,0,0,0,.134-.369c.016-.085.044-.168.054-.253a2.144,2.144,0,0,0,0-.244" transform="translate(0 -0.001)"/>
  </g>
</svg>
