<svg xmlns="http://www.w3.org/2000/svg" width="16.012" height="16.012" viewBox="0 0 16.012 16.012">
  <g id="icon-more" transform="translate(6344.429 729.44)">
    <g id="Group_2744" data-name="Group 2744" transform="translate(-6344.43 -729.44)">
      <path id="Path_4354" data-name="Path 4354" d="M5.337,7.116H1.779A1.781,1.781,0,0,1,0,5.337V1.779A1.781,1.781,0,0,1,1.779,0H5.337A1.781,1.781,0,0,1,7.116,1.779V5.337A1.781,1.781,0,0,1,5.337,7.116M1.779,1.779V5.337H5.338V1.779Z" fill=""/>
      <path id="Path_4355" data-name="Path 4355" d="M15.337,7.116H11.779A1.781,1.781,0,0,1,10,5.337V1.779A1.781,1.781,0,0,1,11.779,0h3.558a1.781,1.781,0,0,1,1.779,1.779V5.337a1.781,1.781,0,0,1-1.779,1.779M11.779,1.779V5.337h3.559V1.779Z" transform="translate(-1.105)" fill=""/>
      <path id="Path_4356" data-name="Path 4356" d="M5.337,17.116H1.779A1.781,1.781,0,0,1,0,15.337V11.779A1.781,1.781,0,0,1,1.779,10H5.337a1.781,1.781,0,0,1,1.779,1.779v3.558a1.781,1.781,0,0,1-1.779,1.779M1.779,11.779v3.558H5.338V11.779Z" transform="translate(0 -1.105)" fill=""/>
      <path id="Path_4357" data-name="Path 4357" d="M15.337,17.116H11.779A1.781,1.781,0,0,1,10,15.337V11.779A1.781,1.781,0,0,1,11.779,10h3.558a1.781,1.781,0,0,1,1.779,1.779v3.558a1.781,1.781,0,0,1-1.779,1.779m-3.558-5.337v3.558h3.559V11.779Z" transform="translate(-1.105 -1.105)" fill=""/>
    </g>
  </g>
</svg>
