<svg xmlns="http://www.w3.org/2000/svg" width="11.696" height="14.62" viewBox="0 0 11.696 14.62">
  <g id="icon-rank" transform="translate(0 14.62) rotate(-90)">
    <path id="Path_4805" data-name="Path 4805" d="M745.5,293.7h-8.772a.731.731,0,0,1-.555-1.207l3.978-4.641-3.978-4.641a.731.731,0,0,1,.555-1.207H745.5a.729.729,0,0,1,.555.255l4.386,5.117a.731.731,0,0,1,0,.952l-4.386,5.117A.729.729,0,0,1,745.5,293.7Zm-7.183-1.462h6.846l3.759-4.386-3.759-4.386H738.32l3.352,3.91a.731.731,0,0,1,0,.952Z" transform="translate(-736 -282)" />
  </g>
</svg>
