<svg xmlns="http://www.w3.org/2000/svg" xmlns:xlink="http://www.w3.org/1999/xlink" width="15.128" height="15.126" viewBox="0 0 15.128 15.126">
  <defs>
    <clipPath id="clip-path">
      <rect id="Rectangle_1164" data-name="Rectangle 1164" width="15.128" height="15.126" fill=""/>
    </clipPath>
  </defs>
  <g id="icon-feedback" transform="translate(6344.43 778.917)">
    <g id="Group_2864" data-name="Group 2864" transform="translate(-6344.43 -778.917)" clip-path="">
      <path id="Path_4440" data-name="Path 4440" d="M11.564,5.68H4.84A.84.84,0,0,1,4.84,4h6.724a.84.84,0,1,1,0,1.681" transform="translate(-0.638 -0.638)" fill=""/>
      <path id="Path_4441" data-name="Path 4441" d="M11.564,9.68H4.84A.84.84,0,1,1,4.84,8h6.724a.84.84,0,1,1,0,1.681" transform="translate(-0.638 -1.276)" fill=""/>
      <path id="Path_4442" data-name="Path 4442" d="M.84,15.126a.84.84,0,0,1-.84-.84V2.521A2.524,2.524,0,0,1,2.521,0H12.607a2.524,2.524,0,0,1,2.521,2.521V9.245a2.524,2.524,0,0,1-2.521,2.521H4.55L1.435,14.881a.843.843,0,0,1-.594.245M2.521,1.681a.841.841,0,0,0-.84.84v9.736l1.927-1.926a.841.841,0,0,1,.594-.245h8.4a.841.841,0,0,0,.84-.84V2.521a.841.841,0,0,0-.84-.84Z" transform="translate(0 0)" fill=""/>
    </g>
  </g>
</svg>
