<svg width="30" height="33" viewBox="0 0 30 33" fill="none" xmlns="http://www.w3.org/2000/svg">
<path d="M2.8915 6.9395C2.7382 6.9395 2.59119 6.8786 2.48279 6.77021C2.3744 6.66181 2.3135 6.51479 2.3135 6.3615C2.3135 5.6615 2.1445 4.0485 0.5785 4.0485C0.425072 4.0485 0.277929 3.98755 0.169439 3.87906C0.0609489 3.77057 0 3.62343 0 3.47C0 3.31657 0.0609489 3.16943 0.169439 3.06094C0.277929 2.95245 0.425072 2.8915 0.5785 2.8915C2.1445 2.8915 2.3135 1.2735 2.3135 0.5785C2.3135 0.425072 2.37445 0.277929 2.48294 0.169439C2.59143 0.0609489 2.73857 0 2.892 0C3.04543 0 3.19257 0.0609489 3.30106 0.169439C3.40955 0.277929 3.4705 0.425072 3.4705 0.5785C3.4705 1.2785 3.6395 2.8915 5.2055 2.8915C5.35893 2.8915 5.50607 2.95245 5.61456 3.06094C5.72305 3.16943 5.784 3.31657 5.784 3.47C5.784 3.62343 5.72305 3.77057 5.61456 3.87906C5.50607 3.98755 5.35893 4.0485 5.2055 4.0485C3.6395 4.0485 3.4705 5.6665 3.4705 6.3615C3.4705 6.51479 3.4096 6.66181 3.30121 6.77021C3.19281 6.8786 3.0458 6.9395 2.8925 6.9395M2.3105 3.4695C2.53818 3.65356 2.73441 3.87343 2.8915 4.1205C3.04859 3.87343 3.24482 3.65356 3.4725 3.4695C3.24482 3.28544 3.04859 3.06557 2.8915 2.8185C2.73441 3.06557 2.53818 3.28544 2.3105 3.4695" fill="#006FFF"/>
<path d="M5.8915 32.9395C5.7382 32.9395 5.59119 32.8786 5.48279 32.7702C5.3744 32.6618 5.3135 32.5148 5.3135 32.3615C5.3135 31.6615 5.1445 30.0485 3.5785 30.0485C3.42507 30.0485 3.27793 29.9876 3.16944 29.8791C3.06095 29.7706 3 29.6234 3 29.47C3 29.3166 3.06095 29.1694 3.16944 29.0609C3.27793 28.9524 3.42507 28.8915 3.5785 28.8915C5.1445 28.8915 5.3135 27.2735 5.3135 26.5785C5.3135 26.4251 5.37445 26.2779 5.48294 26.1694C5.59143 26.0609 5.73857 26 5.892 26C6.04543 26 6.19257 26.0609 6.30106 26.1694C6.40955 26.2779 6.4705 26.4251 6.4705 26.5785C6.4705 27.2785 6.6395 28.8915 8.2055 28.8915C8.35893 28.8915 8.50607 28.9524 8.61456 29.0609C8.72305 29.1694 8.784 29.3166 8.784 29.47C8.784 29.6234 8.72305 29.7706 8.61456 29.8791C8.50607 29.9876 8.35893 30.0485 8.2055 30.0485C6.6395 30.0485 6.4705 31.6665 6.4705 32.3615C6.4705 32.5148 6.4096 32.6618 6.30121 32.7702C6.19281 32.8786 6.0458 32.9395 5.8925 32.9395M5.3105 29.4695C5.53818 29.6536 5.73441 29.8734 5.8915 30.1205C6.04859 29.8734 6.24482 29.6536 6.4725 29.4695C6.24482 29.2854 6.04859 29.0656 5.8915 28.8185C5.73441 29.0656 5.53818 29.2854 5.3105 29.4695" fill="#006FFF"/>
<path d="M26.8915 30.9395C26.7382 30.9395 26.5912 30.8786 26.4828 30.7702C26.3744 30.6618 26.3135 30.5148 26.3135 30.3615C26.3135 29.6615 26.1445 28.0485 24.5785 28.0485C24.4251 28.0485 24.2779 27.9876 24.1694 27.8791C24.0609 27.7706 24 27.6234 24 27.47C24 27.3166 24.0609 27.1694 24.1694 27.0609C24.2779 26.9524 24.4251 26.8915 24.5785 26.8915C26.1445 26.8915 26.3135 25.2735 26.3135 24.5785C26.3135 24.4251 26.3744 24.2779 26.4829 24.1694C26.5914 24.0609 26.7386 24 26.892 24C27.0454 24 27.1926 24.0609 27.3011 24.1694C27.4096 24.2779 27.4705 24.4251 27.4705 24.5785C27.4705 25.2785 27.6395 26.8915 29.2055 26.8915C29.3589 26.8915 29.5061 26.9524 29.6146 27.0609C29.7231 27.1694 29.784 27.3166 29.784 27.47C29.784 27.6234 29.7231 27.7706 29.6146 27.8791C29.5061 27.9876 29.3589 28.0485 29.2055 28.0485C27.6395 28.0485 27.4705 29.6665 27.4705 30.3615C27.4705 30.5148 27.4096 30.6618 27.3012 30.7702C27.1928 30.8786 27.0458 30.9395 26.8925 30.9395M26.3105 27.4695C26.5382 27.6536 26.7344 27.8734 26.8915 28.1205C27.0486 27.8734 27.2448 27.6536 27.4725 27.4695C27.2448 27.2854 27.0486 27.0656 26.8915 26.8185C26.7344 27.0656 26.5382 27.2854 26.3105 27.4695" fill="#006FFF"/>
<path d="M16 10C15.7348 10 15.4804 9.89464 15.2929 9.70711C15.1054 9.51957 15 9.26522 15 9V7C15 6.73478 15.1054 6.48043 15.2929 6.29289C15.4804 6.10536 15.7348 6 16 6C16.2652 6 16.5196 6.10536 16.7071 6.29289C16.8946 6.48043 17 6.73478 17 7V9C17 9.26522 16.8946 9.51957 16.7071 9.70711C16.5196 9.89464 16.2652 10 16 10Z" fill="#006FFF"/>
<path d="M16 26C15.7348 26 15.4804 25.8946 15.2929 25.7071C15.1054 25.5196 15 25.2652 15 25V23C15 22.7348 15.1054 22.4804 15.2929 22.2929C15.4804 22.1054 15.7348 22 16 22C16.2652 22 16.5196 22.1054 16.7071 22.2929C16.8946 22.4804 17 22.7348 17 23V25C17 25.2652 16.8946 25.5196 16.7071 25.7071C16.5196 25.8946 16.2652 26 16 26Z" fill="#006FFF"/>
<path d="M25 17H23C22.7348 17 22.4804 16.8946 22.2929 16.7071C22.1054 16.5196 22 16.2652 22 16C22 15.7348 22.1054 15.4804 22.2929 15.2929C22.4804 15.1054 22.7348 15 23 15H25C25.2652 15 25.5196 15.1054 25.7071 15.2929C25.8946 15.4804 26 15.7348 26 16C26 16.2652 25.8946 16.5196 25.7071 16.7071C25.5196 16.8946 25.2652 17 25 17Z" fill="#006FFF"/>
<path d="M9 17H7C6.73478 17 6.48043 16.8946 6.29289 16.7071C6.10536 16.5196 6 16.2652 6 16C6 15.7348 6.10536 15.4804 6.29289 15.2929C6.48043 15.1054 6.73478 15 7 15H9C9.26522 15 9.51957 15.1054 9.70711 15.2929C9.89464 15.4804 10 15.7348 10 16C10 16.2652 9.89464 16.5196 9.70711 16.7071C9.51957 16.8946 9.26522 17 9 17Z" fill="#006FFF"/>
<path d="M16 10C15.7348 10 15.4804 9.89464 15.2929 9.70711C15.1054 9.51957 15 9.26522 15 9V7C15 6.73478 15.1054 6.48043 15.2929 6.29289C15.4804 6.10536 15.7348 6 16 6C16.2652 6 16.5196 6.10536 16.7071 6.29289C16.8946 6.48043 17 6.73478 17 7V9C17 9.26522 16.8946 9.51957 16.7071 9.70711C16.5196 9.89464 16.2652 10 16 10Z" fill="#006FFF"/>
<path d="M16 26C15.7348 26 15.4804 25.8946 15.2929 25.7071C15.1054 25.5196 15 25.2652 15 25V23C15 22.7348 15.1054 22.4804 15.2929 22.2929C15.4804 22.1054 15.7348 22 16 22C16.2652 22 16.5196 22.1054 16.7071 22.2929C16.8946 22.4804 17 22.7348 17 23V25C17 25.2652 16.8946 25.5196 16.7071 25.7071C16.5196 25.8946 16.2652 26 16 26Z" fill="#006FFF"/>
<path d="M25 17H23C22.7348 17 22.4804 16.8946 22.2929 16.7071C22.1054 16.5196 22 16.2652 22 16C22 15.7348 22.1054 15.4804 22.2929 15.2929C22.4804 15.1054 22.7348 15 23 15H25C25.2652 15 25.5196 15.1054 25.7071 15.2929C25.8946 15.4804 26 15.7348 26 16C26 16.2652 25.8946 16.5196 25.7071 16.7071C25.5196 16.8946 25.2652 17 25 17Z" fill="#006FFF"/>
<path d="M9 17H7C6.73478 17 6.48043 16.8946 6.29289 16.7071C6.10536 16.5196 6 16.2652 6 16C6 15.7348 6.10536 15.4804 6.29289 15.2929C6.48043 15.1054 6.73478 15 7 15H9C9.26522 15 9.51957 15.1054 9.70711 15.2929C9.89464 15.4804 10 15.7348 10 16C10 16.2652 9.89464 16.5196 9.70711 16.7071C9.51957 16.8946 9.26522 17 9 17Z" fill="#006FFF"/>
<path d="M20.95 12.05C20.7522 12.05 20.5589 11.9913 20.3945 11.8814C20.2301 11.7715 20.102 11.6154 20.0263 11.4327C19.9506 11.25 19.9308 11.0489 19.9694 10.855C20.008 10.661 20.1032 10.4829 20.243 10.343L21.657 8.92903C21.8456 8.74687 22.0982 8.64607 22.3604 8.64835C22.6226 8.65063 22.8734 8.7558 23.0588 8.94121C23.2442 9.12662 23.3494 9.37743 23.3517 9.63963C23.3539 9.90182 23.2531 10.1544 23.071 10.343L21.657 11.757C21.4695 11.9446 21.2152 12.05 20.95 12.05" fill="#006FFF"/>
<path d="M9.63602 23.364C9.43827 23.364 9.24497 23.3053 9.08056 23.1954C8.91615 23.0855 8.78801 22.9294 8.71234 22.7467C8.63667 22.564 8.61687 22.363 8.65543 22.169C8.694 21.975 8.78921 21.7969 8.92902 21.657L10.343 20.243C10.4353 20.1475 10.5456 20.0713 10.6676 20.0189C10.7896 19.9665 10.9208 19.9389 11.0536 19.9378C11.1864 19.9366 11.3181 19.9619 11.441 20.0122C11.5639 20.0625 11.6755 20.1367 11.7694 20.2306C11.8633 20.3245 11.9376 20.4362 11.9878 20.5591C12.0381 20.682 12.0634 20.8137 12.0623 20.9464C12.0611 21.0792 12.0335 21.2104 11.9811 21.3324C11.9287 21.4544 11.8525 21.5648 11.757 21.657L10.343 23.071C10.1555 23.2586 9.90121 23.364 9.63602 23.364Z" fill="#006FFF"/>
<path d="M22.3641 23.364C22.0989 23.3639 21.8446 23.2585 21.6571 23.071L20.2431 21.657C20.061 21.4684 19.9602 21.2158 19.9624 20.9536C19.9647 20.6914 20.0699 20.4406 20.2553 20.2552C20.4407 20.0698 20.6915 19.9646 20.9537 19.9623C21.2159 19.96 21.4685 20.0608 21.6571 20.243L23.0711 21.657C23.2109 21.7968 23.3061 21.975 23.3447 22.169C23.3833 22.3629 23.3635 22.5639 23.2878 22.7466C23.2121 22.9293 23.084 23.0855 22.9196 23.1954C22.7552 23.3053 22.5619 23.364 22.3641 23.364Z" fill="#006FFF"/>
<path d="M11.0499 12.05C10.7847 12.05 10.5304 11.9446 10.3429 11.757L8.92891 10.343C8.74675 10.1544 8.64595 9.90182 8.64823 9.63963C8.65051 9.37743 8.75568 9.12662 8.94109 8.94121C9.12649 8.7558 9.37731 8.65063 9.6395 8.64835C9.9017 8.64607 10.1543 8.74687 10.3429 8.92903L11.7569 10.343C11.8967 10.4829 11.9919 10.661 12.0305 10.855C12.0691 11.0489 12.0493 11.25 11.9736 11.4327C11.8979 11.6154 11.7698 11.7715 11.6054 11.8814C11.441 11.9913 11.2477 12.05 11.0499 12.05Z" fill="#006FFF"/>
<path d="M20.95 12.05C20.7522 12.05 20.5589 11.9913 20.3945 11.8814C20.2301 11.7715 20.102 11.6154 20.0263 11.4327C19.9506 11.25 19.9308 11.0489 19.9694 10.855C20.008 10.661 20.1032 10.4829 20.243 10.343L21.657 8.92903C21.8456 8.74687 22.0982 8.64607 22.3604 8.64835C22.6226 8.65063 22.8734 8.7558 23.0588 8.94121C23.2442 9.12662 23.3494 9.37743 23.3517 9.63963C23.3539 9.90182 23.2531 10.1544 23.071 10.343L21.657 11.757C21.4695 11.9446 21.2152 12.05 20.95 12.05" fill="#006FFF"/>
<path d="M9.63602 23.364C9.43827 23.364 9.24497 23.3053 9.08056 23.1954C8.91615 23.0855 8.78801 22.9294 8.71234 22.7467C8.63667 22.564 8.61687 22.363 8.65543 22.169C8.694 21.975 8.78921 21.7969 8.92902 21.657L10.343 20.243C10.4353 20.1475 10.5456 20.0713 10.6676 20.0189C10.7896 19.9665 10.9208 19.9389 11.0536 19.9378C11.1864 19.9366 11.3181 19.9619 11.441 20.0122C11.5639 20.0625 11.6755 20.1367 11.7694 20.2306C11.8633 20.3245 11.9376 20.4362 11.9878 20.5591C12.0381 20.682 12.0634 20.8137 12.0623 20.9464C12.0611 21.0792 12.0335 21.2104 11.9811 21.3324C11.9287 21.4544 11.8525 21.5648 11.757 21.657L10.343 23.071C10.1555 23.2586 9.90121 23.364 9.63602 23.364Z" fill="#006FFF"/>
<path d="M22.3641 23.364C22.0989 23.3639 21.8446 23.2585 21.6571 23.071L20.2431 21.657C20.061 21.4684 19.9602 21.2158 19.9624 20.9536C19.9647 20.6914 20.0699 20.4406 20.2553 20.2552C20.4407 20.0698 20.6915 19.9646 20.9537 19.9623C21.2159 19.96 21.4685 20.0608 21.6571 20.243L23.0711 21.657C23.2109 21.7968 23.3061 21.975 23.3447 22.169C23.3833 22.3629 23.3635 22.5639 23.2878 22.7466C23.2121 22.9293 23.084 23.0855 22.9196 23.1954C22.7552 23.3053 22.5619 23.364 22.3641 23.364Z" fill="#006FFF"/>
<path d="M11.0499 12.05C10.7847 12.05 10.5304 11.9446 10.3429 11.757L8.92891 10.343C8.74675 10.1544 8.64595 9.90182 8.64823 9.63963C8.65051 9.37743 8.75568 9.12662 8.94109 8.94121C9.12649 8.7558 9.37731 8.65063 9.6395 8.64835C9.9017 8.64607 10.1543 8.74687 10.3429 8.92903L11.7569 10.343C11.8967 10.4829 11.9919 10.661 12.0305 10.855C12.0691 11.0489 12.0493 11.25 11.9736 11.4327C11.8979 11.6154 11.7698 11.7715 11.6054 11.8814C11.441 11.9913 11.2477 12.05 11.0499 12.05Z" fill="#006FFF"/>
<path d="M16 21C15.0111 21 14.0444 20.7068 13.2222 20.1573C12.3999 19.6079 11.759 18.827 11.3806 17.9134C11.0022 16.9998 10.9031 15.9945 11.0961 15.0246C11.289 14.0546 11.7652 13.1637 12.4645 12.4645C13.1637 11.7652 14.0546 11.289 15.0246 11.0961C15.9945 10.9031 16.9998 11.0022 17.9134 11.3806C18.827 11.759 19.6079 12.3999 20.1573 13.2222C20.7068 14.0444 21 15.0111 21 16C20.9984 17.3256 20.4711 18.5964 19.5338 19.5338C18.5964 20.4711 17.3256 20.9984 16 21ZM16 13C15.4067 13 14.8266 13.1759 14.3333 13.5056C13.8399 13.8352 13.4554 14.3038 13.2284 14.852C13.0013 15.4001 12.9419 16.0033 13.0576 16.5853C13.1734 17.1672 13.4591 17.7018 13.8787 18.1213C14.2982 18.5409 14.8328 18.8266 15.4147 18.9424C15.9967 19.0581 16.5999 18.9987 17.1481 18.7716C17.6962 18.5446 18.1648 18.1601 18.4944 17.6667C18.8241 17.1734 19 16.5933 19 16C19 15.2044 18.6839 14.4413 18.1213 13.8787C17.5587 13.3161 16.7957 13 16 13Z" fill="#006FFF"/>
</svg>
