<svg xmlns="http://www.w3.org/2000/svg" width="15.22" height="15.22" viewBox="0 0 15.22 15.22">
  <g id="icon-email" transform="translate(5867.533 575.724)">
    <g id="Group_3033" data-name="Group 3033" transform="translate(-5867.533 -575.724)">
      <path id="Path_4472" data-name="Path 4472" d="M1128.837,220.22h-4.228a7.61,7.61,0,1,1,7.61-7.61V214.3a2.537,2.537,0,0,1-5.073,0v-4.228a.846.846,0,1,1,1.691,0V214.3a.846.846,0,0,0,1.691,0V212.61a5.919,5.919,0,1,0-5.919,5.919h4.228a.846.846,0,1,1,0,1.691Z" transform="translate(-1117 -205)"/>
    </g>
    <g id="Group_3034" data-name="Group 3034" transform="translate(-5864.15 -572.342)">
      <path id="Path_4473" data-name="Path 4473" d="M1125.228,217.455a4.228,4.228,0,1,1,4.228-4.228A4.233,4.233,0,0,1,1125.228,217.455Zm0-6.764a2.537,2.537,0,1,0,2.537,2.537A2.54,2.54,0,0,0,1125.228,210.691Z" transform="translate(-1121 -209)"/>
    </g>
  </g>
</svg>
