<svg xmlns="http://www.w3.org/2000/svg" xmlns:xlink="http://www.w3.org/1999/xlink" width="19" height="19" viewBox="0 0 19 19">
  <defs>
    <clipPath id="clip-path">
      <rect id="Rectangle_2076" data-name="Rectangle 2076" width="19" height="19"/>
    </clipPath>
  </defs>
  <g id="Group_4615" data-name="Group 4615" transform="translate(0 3.859) rotate(-16)">
    <g id="Group_4584" data-name="Group 4584" transform="translate(0 0)">
      <path id="Path_5260" data-name="Path 5260" d="M7.634,15.523a7.606,7.606,0,0,1-5.248-2.236A7.706,7.706,0,0,1,0,7.76,7.987,7.987,0,0,1,6.871.008.777.777,0,0,1,7.64,1.194a6.328,6.328,0,0,0-.008,6.913,6.693,6.693,0,0,0,5.532,2.758.742.742,0,0,1,.715.408.776.776,0,0,1-.053.82,8.178,8.178,0,0,1-6.047,3.428l-.144,0M5.532,1.98A6.348,6.348,0,0,0,1.552,7.76a6.168,6.168,0,0,0,1.919,4.417,6.115,6.115,0,0,0,4.273,1.791,5.933,5.933,0,0,0,3.848-1.7A7.862,7.862,0,0,1,6.339,8.967,7.818,7.818,0,0,1,5.532,1.98" transform="translate(0.015 0.239)"/>
    </g>
  </g>
</svg>
