<svg id="Group_5064" data-name="Group 5064" xmlns="http://www.w3.org/2000/svg" width="28" height="28" viewBox="0 0 28 28">
  <g id="Group_5065" data-name="Group 5065">
    <path id="Path_5580" data-name="Path 5580" d="M14,28A14,14,0,1,1,28,14,14.016,14.016,0,0,1,14,28M14,2.8A11.2,11.2,0,1,0,25.2,14,11.213,11.213,0,0,0,14,2.8" fill="#006fff"/>
    <path id="Path_5581" data-name="Path 5581" d="M18.2,16.4a4.2,4.2,0,1,1,4.2-4.2,4.2,4.2,0,0,1-4.2,4.2m0-5.6a1.4,1.4,0,1,0,1.4,1.4,1.4,1.4,0,0,0-1.4-1.4" transform="translate(-4.2 -2.4)" fill="#006fff"/>
    <path id="Path_5582" data-name="Path 5582" d="M23.374,33.1h-.009a1.4,1.4,0,0,1-1.391-1.408l0-.663a4.2,4.2,0,0,0-4.2-4.229H15.053a4.2,4.2,0,0,0-4.2,4.228l0,.664A1.4,1.4,0,0,1,9.466,33.1H9.457a1.4,1.4,0,0,1-1.4-1.392l0-.663a7,7,0,0,1,7-7.046h2.725a7,7,0,0,1,7,7.046l0,.662a1.4,1.4,0,0,1-1.4,1.392" transform="translate(-2.416 -7.2)" fill="#006fff"/>
  </g>
</svg>
