<svg xmlns="http://www.w3.org/2000/svg" width="15.647" height="15.647" viewBox="0 0 15.647 15.647">
  <g id="icon-trait" transform="translate(6214.723 534.505)">
    <g id="Group_3760" data-name="Group 3760" transform="translate(-6214.723 -534.505)">
      <g id="Group_3756" data-name="Group 3756">
        <path id="Path_4800" data-name="Path 4800" d="M1497.869,173.085a.869.869,0,0,1-.869-.869v-2.608a2.611,2.611,0,0,1,2.608-2.608h2.608a.869.869,0,0,1,0,1.739h-2.608a.87.87,0,0,0-.869.869v2.608A.869.869,0,0,1,1497.869,173.085Z" transform="translate(-1497 -167)"/>
      </g>
      <g id="Group_3757" data-name="Group 3757" transform="translate(9.562)">
        <path id="Path_4801" data-name="Path 4801" d="M1513.216,173.085a.869.869,0,0,1-.869-.869v-2.608a.87.87,0,0,0-.869-.869h-2.608a.869.869,0,1,1,0-1.739h2.608a2.611,2.611,0,0,1,2.608,2.608v2.608A.869.869,0,0,1,1513.216,173.085Z" transform="translate(-1508 -167)"/>
      </g>
      <g id="Group_3758" data-name="Group 3758" transform="translate(0 9.562)">
        <path id="Path_4802" data-name="Path 4802" d="M1502.216,184.085h-2.608a2.611,2.611,0,0,1-2.608-2.608v-2.608a.869.869,0,0,1,1.739,0v2.608a.87.87,0,0,0,.869.869h2.608a.869.869,0,0,1,0,1.739Z" transform="translate(-1497 -178)"/>
      </g>
      <g id="Group_3759" data-name="Group 3759" transform="translate(9.562 9.562)">
        <path id="Path_4803" data-name="Path 4803" d="M1511.477,184.085h-2.608a.869.869,0,1,1,0-1.739h2.608a.87.87,0,0,0,.869-.869v-2.608a.869.869,0,1,1,1.739,0v2.608A2.611,2.611,0,0,1,1511.477,184.085Z" transform="translate(-1508 -178)" />
      </g>
    </g>
    <g id="Group_3761" data-name="Group 3761" transform="translate(-6211.246 -531.897)">
      <path id="Path_4804" data-name="Path 4804" d="M1505.346,180.431a4.351,4.351,0,0,1-4.346-4.346v-1.739a4.346,4.346,0,1,1,8.693,0v1.739A4.351,4.351,0,0,1,1505.346,180.431Zm0-8.693a2.611,2.611,0,0,0-2.608,2.608v1.739a2.608,2.608,0,0,0,5.216,0v-1.739A2.611,2.611,0,0,0,1505.346,171.739Z" transform="translate(-1501 -170)" />
    </g>
  </g>
</svg>
