<svg xmlns="http://www.w3.org/2000/svg" width="15.556" height="15.555" viewBox="0 0 15.556 15.555">
  <g id="Icon-Portfolio" transform="translate(6378.43 1130.071)">
    <g id="Group_3986" data-name="Group 3986" transform="translate(-34 -50)">
      <g id="Group_2833" data-name="Group 2833" transform="translate(-6344.43 -1080.071)">
        <path id="Path_4418" data-name="Path 4418" d="M12.963,15.555H2.593A2.6,2.6,0,0,1,0,12.963V2.593A2.6,2.6,0,0,1,2.593,0h10.37a2.6,2.6,0,0,1,2.593,2.593v10.37a2.6,2.6,0,0,1-2.593,2.593M2.593,1.728a.865.865,0,0,0-.864.864v10.37a.865.865,0,0,0,.864.864h10.37a.865.865,0,0,0,.864-.864V2.593a.865.865,0,0,0-.864-.864Z" fill=""/>
        <path id="Path_4419" data-name="Path 4419" d="M12.864,13.321A.863.863,0,0,1,12,12.457V9.864a.864.864,0,1,1,1.728,0v2.593a.863.863,0,0,1-.864.864" transform="translate(-1.63 -1.222)" fill=""/>
        <path id="Path_4420" data-name="Path 4420" d="M8.864,12.642A.863.863,0,0,1,8,11.778V4.864a.864.864,0,1,1,1.728,0v6.914a.863.863,0,0,1-.864.864" transform="translate(-1.086 -0.543)" fill=""/>
        <path id="Path_4421" data-name="Path 4421" d="M4.864,13.049A.863.863,0,0,1,4,12.185V7.864a.864.864,0,1,1,1.728,0v4.321a.863.863,0,0,1-.864.864" transform="translate(-0.543 -0.951)" fill=""/>
      </g>
    </g>
  </g>
</svg>
