<svg xmlns="http://www.w3.org/2000/svg" xmlns:xlink="http://www.w3.org/1999/xlink" width="20.1" height="8.044" viewBox="0 0 20.1 8.044">
  <defs>
    <clipPath id="clip-path">
      <rect id="Rectangle_1127" data-name="Rectangle 1127" width="20.1" height="8.044" fill=""/>
    </clipPath>
  </defs>
  <g id="icon-top-sales" clip-path="url(#clip-path)">
    <path id="Path_4388" data-name="Path 4388" d="M0,8.044V0H2.124L3.8,2.948A23.339,23.339,0,0,1,5.109,5.705h.036a29.9,29.9,0,0,1-.155-3.354V0H6.66V8.044H4.75l-1.719-3.1A29.9,29.9,0,0,1,1.635,2.1L1.6,2.113c.048,1.062.072,2.2.072,3.509V8.044Z" transform="translate(0 0)" fill=""/>
    <path id="Path_4389" data-name="Path 4389" d="M42.779,0H47.7V1.492H44.605V3.33h2.889V4.81H44.605V8.044H42.779Z" transform="translate(-34.543 0)" fill=""/>
    <path id="Path_4390" data-name="Path 4390" d="M74.451,1.527h-2.16V0h6.183V1.527h-2.2V8.044H74.451Z" transform="translate(-58.374 0)" fill=""/>
  </g>
</svg>
