<svg width="29" height="28" viewBox="0 0 29 28" xmlns="http://www.w3.org/2000/svg">
<path d="M20.6171 19.6689C18.7104 20.1779 16.6804 19.9259 14.9561 18.966C14.04 18.4859 13.2299 17.8263 12.5742 17.0266C11.9184 16.2268 11.4303 15.3032 11.139 14.3108C10.6518 12.4762 10.8338 10.528 11.6526 8.81544C12.4714 7.10287 13.8733 5.73791 15.6071 4.9652C15.7428 4.90365 15.8932 4.88239 16.0406 4.90393C16.188 4.92547 16.326 4.98892 16.4384 5.08671C16.5507 5.1845 16.6326 5.31252 16.6742 5.45552C16.7159 5.59852 16.7155 5.75047 16.6732 5.89329C16.3108 7.06598 16.2972 8.31877 16.6342 9.49904C16.9712 10.6793 17.6441 11.7361 18.571 12.5407C19.419 13.2032 20.4141 13.6515 21.4722 13.8475C22.5302 14.0436 23.6199 13.9817 24.6489 13.667C24.7866 13.617 24.936 13.6088 25.0784 13.6435C25.2207 13.6782 25.3496 13.7543 25.4487 13.8621C25.5501 13.9662 25.6203 14.0966 25.6512 14.2385C25.6822 14.3804 25.6727 14.5282 25.6238 14.665C25.2267 15.7989 24.5846 16.8313 23.7433 17.6889C22.9019 18.5465 21.882 19.2082 20.7559 19.627L20.6175 19.6667M14.8636 7.22988C13.8785 7.99652 13.1414 9.03653 12.7443 10.2199C12.3472 11.4032 12.3077 12.6774 12.6309 13.883C12.866 14.6763 13.2582 15.4141 13.7842 16.0527C14.3103 16.6912 14.9595 17.2174 15.6931 17.6C17.0961 18.3777 18.7485 18.573 20.2942 18.1438C21.664 17.6702 22.8131 16.7117 23.5246 15.449C22.4661 15.5807 21.392 15.4957 20.3675 15.1991C19.343 14.9025 18.3895 14.4005 17.5652 13.7238C16.6389 12.9276 15.912 11.9255 15.4429 10.7978C14.9737 9.67007 14.7753 8.44811 14.8636 7.22988" />
<path d="M2.8915 7.9395C2.7382 7.9395 2.59119 7.8786 2.48279 7.77021C2.3744 7.66181 2.3135 7.51479 2.3135 7.3615C2.3135 6.6615 2.1445 5.0485 0.5785 5.0485C0.425072 5.0485 0.277929 4.98755 0.169439 4.87906C0.0609489 4.77057 0 4.62343 0 4.47C0 4.31657 0.0609489 4.16943 0.169439 4.06094C0.277929 3.95245 0.425072 3.8915 0.5785 3.8915C2.1445 3.8915 2.3135 2.2735 2.3135 1.5785C2.3135 1.42507 2.37445 1.27793 2.48294 1.16944C2.59143 1.06095 2.73857 1 2.892 1C3.04543 1 3.19257 1.06095 3.30106 1.16944C3.40955 1.27793 3.4705 1.42507 3.4705 1.5785C3.4705 2.2785 3.6395 3.8915 5.2055 3.8915C5.35893 3.8915 5.50607 3.95245 5.61456 4.06094C5.72305 4.16943 5.784 4.31657 5.784 4.47C5.784 4.62343 5.72305 4.77057 5.61456 4.87906C5.50607 4.98755 5.35893 5.0485 5.2055 5.0485C3.6395 5.0485 3.4705 6.6665 3.4705 7.3615C3.4705 7.51479 3.4096 7.66181 3.30121 7.77021C3.19281 7.8786 3.0458 7.9395 2.8925 7.9395M2.3105 4.4695C2.53818 4.65356 2.73441 4.87343 2.8915 5.1205C3.04859 4.87343 3.24482 4.65356 3.4725 4.4695C3.24482 4.28544 3.04859 4.06557 2.8915 3.8185C2.73441 4.06557 2.53818 4.28544 2.3105 4.4695" />
<path d="M25.8915 6.9395C25.7382 6.9395 25.5912 6.8786 25.4828 6.77021C25.3744 6.66181 25.3135 6.51479 25.3135 6.3615C25.3135 5.6615 25.1445 4.0485 23.5785 4.0485C23.4251 4.0485 23.2779 3.98755 23.1694 3.87906C23.0609 3.77057 23 3.62343 23 3.47C23 3.31657 23.0609 3.16943 23.1694 3.06094C23.2779 2.95245 23.4251 2.8915 23.5785 2.8915C25.1445 2.8915 25.3135 1.2735 25.3135 0.5785C25.3135 0.425072 25.3744 0.277929 25.4829 0.169439C25.5914 0.0609489 25.7386 0 25.892 0C26.0454 0 26.1926 0.0609489 26.3011 0.169439C26.4096 0.277929 26.4705 0.425072 26.4705 0.5785C26.4705 1.2785 26.6395 2.8915 28.2055 2.8915C28.3589 2.8915 28.5061 2.95245 28.6146 3.06094C28.7231 3.16943 28.784 3.31657 28.784 3.47C28.784 3.62343 28.7231 3.77057 28.6146 3.87906C28.5061 3.98755 28.3589 4.0485 28.2055 4.0485C26.6395 4.0485 26.4705 5.6665 26.4705 6.3615C26.4705 6.51479 26.4096 6.66181 26.3012 6.77021C26.1928 6.8786 26.0458 6.9395 25.8925 6.9395M25.3105 3.4695C25.5382 3.65356 25.7344 3.87343 25.8915 4.1205C26.0486 3.87343 26.2448 3.65356 26.4725 3.4695C26.2448 3.28544 26.0486 3.06557 25.8915 2.8185C25.7344 3.06557 25.5382 3.28544 25.3105 3.4695" />
<path d="M10.8915 27.9395C10.7382 27.9395 10.5912 27.8786 10.4828 27.7702C10.3744 27.6618 10.3135 27.5148 10.3135 27.3615C10.3135 26.6615 10.1445 25.0485 8.5785 25.0485C8.42507 25.0485 8.27793 24.9876 8.16944 24.8791C8.06095 24.7706 8 24.6234 8 24.47C8 24.3166 8.06095 24.1694 8.16944 24.0609C8.27793 23.9524 8.42507 23.8915 8.5785 23.8915C10.1445 23.8915 10.3135 22.2735 10.3135 21.5785C10.3135 21.4251 10.3744 21.2779 10.4829 21.1694C10.5914 21.0609 10.7386 21 10.892 21C11.0454 21 11.1926 21.0609 11.3011 21.1694C11.4096 21.2779 11.4705 21.4251 11.4705 21.5785C11.4705 22.2785 11.6395 23.8915 13.2055 23.8915C13.3589 23.8915 13.5061 23.9524 13.6146 24.0609C13.7231 24.1694 13.784 24.3166 13.784 24.47C13.784 24.6234 13.7231 24.7706 13.6146 24.8791C13.5061 24.9876 13.3589 25.0485 13.2055 25.0485C11.6395 25.0485 11.4705 26.6665 11.4705 27.3615C11.4705 27.5148 11.4096 27.6618 11.3012 27.7702C11.1928 27.8786 11.0458 27.9395 10.8925 27.9395M10.3105 24.4695C10.5382 24.6536 10.7344 24.8734 10.8915 25.1205C11.0486 24.8734 11.2448 24.6536 11.4725 24.4695C11.2448 24.2854 11.0486 24.0656 10.8915 23.8185C10.7344 24.0656 10.5382 24.2854 10.3105 24.4695" />
</svg>
