<svg xmlns="http://www.w3.org/2000/svg" width="16.436" height="13.936" viewBox="0 0 16.436 13.936">
  <path id="icon-share" d="M2097.36,408.248a2.988,2.988,0,0,0-3.144,4.706l-2.109,3.22a2.973,2.973,0,0,0-1.483.025l-2.041-2.948a2.959,2.959,0,0,0,.477-.99,3,3,0,1,0-3.666,2.135,2.966,2.966,0,0,0,1.538-.016l2.041,2.948a3,3,0,1,0,4.8-.05l2.11-3.221a3,3,0,0,0,1.476-5.809Zm-11.455,4.214a1,1,0,1,1,1.222-.711A1,1,0,0,1,2085.905,412.462Zm6.458,6.877a1,1,0,1,1-.712-1.222A1,1,0,0,1,2092.363,419.339Zm5.2-7.936a1,1,0,1,1-.711-1.222A1,1,0,0,1,2097.561,411.4Z" transform="translate(-2083.159 -408.148)"/>
</svg>
