<svg xmlns="http://www.w3.org/2000/svg" width="18" height="17.963" viewBox="0 0 18 17.963">
  <g id="icon-tag" transform="translate(6216.276 754.115)">
    <g id="Group_3746" data-name="Group 3746" transform="translate(-6421.276 -1263.152)">
      <path id="Path_4794" data-name="Path 4794" d="M221,527H207a2,2,0,0,1-2-2v-7a2,2,0,0,1,2-2h14a2,2,0,0,1,2,2v7A2,2,0,0,1,221,527Zm-14-9v7h14v-7Z"/>
    </g>
    <g id="Group_3747" data-name="Group 3747" transform="translate(-6421.276 -1263.152)">
      <path id="Path_4795" data-name="Path 4795" d="M218,518a1,1,0,0,1-.869-.5L214,512.016l-3.132,5.48a1,1,0,1,1-1.736-.992l4-7a1.04,1.04,0,0,1,1.736,0l4,7a1,1,0,0,1-.372,1.364A.988.988,0,0,1,218,518Z"/>
    </g>
    <g id="Group_3750" data-name="Group 3750" transform="translate(-6421.276 -1263.152)">
      <g id="Group_3748" data-name="Group 3748">
        <path id="Path_4796" data-name="Path 4796" d="M218,521h-8a1,1,0,0,1,0-2h8a1,1,0,0,1,0,2Z"/>
      </g>
      <g id="Group_3749" data-name="Group 3749">
        <path id="Path_4797" data-name="Path 4797" d="M216,524h-4a1,1,0,0,1,0-2h4a1,1,0,0,1,0,2Z"/>
      </g>
    </g>
  </g>
</svg>
