<svg xmlns="http://www.w3.org/2000/svg" width="16.336" height="13.276" viewBox="0 0 16.336 13.276">
  <path id="icon-twitter" d="M18.907,6.389a6.7,6.7,0,0,1-1.925.528,3.362,3.362,0,0,0,1.474-1.854,6.71,6.71,0,0,1-2.128.813,3.355,3.355,0,0,0-5.711,3.057,9.515,9.515,0,0,1-6.908-3.5A3.355,3.355,0,0,0,4.745,9.905a3.338,3.338,0,0,1-1.518-.419c0,.014,0,.028,0,.042a3.354,3.354,0,0,0,2.689,3.286,3.357,3.357,0,0,1-1.514.057A3.355,3.355,0,0,0,7.533,15.2,6.725,6.725,0,0,1,3.37,16.635a6.8,6.8,0,0,1-.8-.047,9.532,9.532,0,0,0,14.674-8.03q0-.218-.01-.434a6.809,6.809,0,0,0,1.673-1.735Z" transform="translate(-2.571 -4.817)"/>
</svg>
