<svg xmlns="http://www.w3.org/2000/svg" width="16.792" height="16.792" viewBox="0 0 16.792 16.792">
  <g id="icon-lend" transform="translate(6345.43 879.689)">
    <g id="Group_2836" data-name="Group 2836" transform="translate(-6345.43 -879.689)">
      <path id="Path_4422" data-name="Path 4422" d="M8.4,16.792a8.4,8.4,0,1,1,8.4-8.4,8.406,8.406,0,0,1-8.4,8.4m0-15.113A6.717,6.717,0,1,0,15.113,8.4,6.725,6.725,0,0,0,8.4,1.679" fill="#6ACC32"/>
      <path id="Path_4423" data-name="Path 4423" d="M9.939,12.717H7.84a.84.84,0,1,1,0-1.679h2.1a.42.42,0,0,0,0-.84H9.1A2.1,2.1,0,1,1,9.1,6h2.1a.84.84,0,0,1,0,1.679H9.1a.42.42,0,1,0,0,.84h.84a2.1,2.1,0,1,1,0,4.2" transform="translate(-1.123 -0.962)" fill="#6ACC32"/>
      <path id="Path_4424" data-name="Path 4424" d="M9.84,7.519A.839.839,0,0,1,9,6.679V5.84a.84.84,0,1,1,1.679,0v.84a.839.839,0,0,1-.84.84" transform="translate(-1.444 -0.802)" fill="#6ACC32"/>
      <path id="Path_4425" data-name="Path 4425" d="M9.84,14.519a.839.839,0,0,1-.84-.84v-.84a.84.84,0,1,1,1.679,0v.84a.839.839,0,0,1-.84.84" transform="translate(-1.444 -1.925)" fill="#6ACC32"/>
    </g>
  </g>
</svg>
