<svg xmlns="http://www.w3.org/2000/svg" width="16.87" height="16.87" viewBox="0 0 16.87 16.87">
  <g id="Group_4002" data-name="Group 4002" transform="translate(-0.003 -0.04)">
    <path id="Path_12" data-name="Path 12" d="M8.435,16.87A8.435,8.435,0,1,1,16.87,8.435,8.445,8.445,0,0,1,8.435,16.87m0-15.183a6.748,6.748,0,1,0,6.748,6.748A6.756,6.756,0,0,0,8.435,1.687" transform="translate(0.003 0.04)" />
    <path id="Path_13" data-name="Path 13" d="M16.189,25.687H1.884a.844.844,0,1,1,0-1.687H16.189a.844.844,0,1,1,0,1.687" transform="translate(-0.598 -13.838)"/>
    <path id="Path_14" data-name="Path 14" d="M16.189,13.687H1.884a.844.844,0,1,1,0-1.687H16.189a.844.844,0,0,1,0,1.687" transform="translate(-0.598 -6.899)" />
    <path id="Path_15" data-name="Path 15" d="M14.506,16.889a.844.844,0,0,1-.766-.489,18.786,18.786,0,0,1,0-15.791.843.843,0,1,1,1.531.709,17.1,17.1,0,0,0,0,14.372.844.844,0,0,1-.765,1.2" transform="translate(-6.936 -0.03)" />
    <path id="Path_16" data-name="Path 16" d="M20.9,16.889a.844.844,0,0,1-.765-1.2,17.1,17.1,0,0,0,0-14.372A.843.843,0,1,1,21.669.609a18.786,18.786,0,0,1,0,15.791.844.844,0,0,1-.766.489" transform="translate(-11.596 -0.03)"/>
  </g>
</svg>
