<?xml version="1.0" encoding="UTF-8"?>
<svg id="Layer_1" xmlns="http://www.w3.org/2000/svg" width="20.1" height="20.1" viewBox="0 0 22.58 22.58">
  <defs>
    <clipPath id="clip-path">
      <rect id="Rectangle_1127" data-name="Rectangle 1127" width="20.1" height="20.1" fill="" />
    </clipPath>
  </defs>
  <g id="Mic">
    <path class="cls-1" d="M11.21,14.83c-2.21,0-4-1.79-4-4V4.83c0-2.21,1.79-4,4-4s4,1.79,4,4v6c0,2.21-1.79,4-4,4Zm0-12c-1.1,0-2,.9-2,2v6c0,1.1,.9,2,2,2s2-.9,2-2V4.83c0-1.1-.9-2-2-2Z" />
    <g>
      <path class="cls-1" d="M11.21,20.83c-.55,0-1-.45-1-1v-3c0-.55,.45-1,1-1s1,.45,1,1v3c0,.55-.45,1-1,1Z" />
      <path class="cls-1" d="M11.21,17.83c-3.86,0-7-3.14-7-7,0-.55,.45-1,1-1s1,.45,1,1c0,2.76,2.24,5,5,5s5-2.24,5-5c0-.55,.45-1,1-1s1,.45,1,1c0,3.86-3.14,7-7,7Z" />
    </g>
  </g>
</svg>