<svg xmlns="http://www.w3.org/2000/svg" width="15.429" height="15.429" viewBox="0 0 15.429 15.429">
  <g id="Group_4249" data-name="Group 4249" transform="translate(-1311.583 45.278)">
    <g id="Group_4245" data-name="Group 4245" transform="translate(1311.583 -41.207)">
      <g id="Group_4243" data-name="Group 4243" transform="translate(0 5.358)">
        <path id="Path_4984" data-name="Path 4984" d="M1326.047-33.571h-13.5a.965.965,0,0,1-.964-.964.965.965,0,0,1,.964-.964h13.5a.964.964,0,0,1,.964.964A.964.964,0,0,1,1326.047-33.571Z" transform="translate(-1311.583 35.5)" fill="#006fff"/>
      </g>
      <g id="Group_4244" data-name="Group 4244">
        <path id="Path_4985" data-name="Path 4985" d="M1326.047-39.127h-13.5a.964.964,0,0,1-.964-.964.965.965,0,0,1,.964-.964h13.5a.964.964,0,0,1,.964.964A.963.963,0,0,1,1326.047-39.127Z" transform="translate(-1311.583 41.056)" fill="#006fff"/>
      </g>
    </g>
    <g id="Group_4248" data-name="Group 4248" transform="translate(1315.173 -45.278)">
      <g id="Group_4246" data-name="Group 4246">
        <path id="Path_4986" data-name="Path 4986" d="M1315.306-30.814v-13.5a.964.964,0,0,1,.964-.964.964.964,0,0,1,.964.964v13.5a.964.964,0,0,1-.964.964A.964.964,0,0,1,1315.306-30.814Z" transform="translate(-1315.306 45.278)" fill="#006fff"/>
      </g>
      <g id="Group_4247" data-name="Group 4247" transform="translate(6.321)">
        <path id="Path_4987" data-name="Path 4987" d="M1321.861-30.814v-13.5a.964.964,0,0,1,.964-.964.964.964,0,0,1,.964.964v13.5a.964.964,0,0,1-.964.964A.964.964,0,0,1,1321.861-30.814Z" transform="translate(-1321.861 45.278)" fill="#006fff"/>
      </g>
    </g>
  </g>
</svg>
