<svg xmlns="http://www.w3.org/2000/svg" width="16.652" height="16.679" viewBox="0 0 16.652 16.679">
  <g id="icon-news" transform="translate(-0.781 6.639) rotate(-30)">
    <g id="Group_2771" data-name="Group 2771" transform="translate(0 0)">
      <path id="Path_4370" data-name="Path 4370" d="M5.467,6.248H3.124A3.124,3.124,0,0,1,3.124,0H5.467a.78.78,0,0,1,.781.781V5.467a.78.78,0,0,1-.781.781M3.124,1.562a1.562,1.562,0,0,0,0,3.124H4.686V1.562Z" transform="translate(0 1.562)" fill=""/>
      <path id="Path_4371" data-name="Path 4371" d="M2.343,6.248H.781A.78.78,0,0,1,0,5.467V.781a.781.781,0,1,1,1.562,0V4.686h.781a.781.781,0,0,0,.781-.781V.781a.781.781,0,1,1,1.562,0V3.905A2.346,2.346,0,0,1,2.343,6.248" transform="translate(1.562 6.248)" fill=""/>
      <path id="Path_4372" data-name="Path 4372" d="M7.811,9.372a.833.833,0,0,1-.169-.018L.612,7.792A.782.782,0,0,1,.951,6.266L7.03,7.617V1.755L.951,3.106A.782.782,0,1,1,.612,1.58L7.641.018A.79.79,0,0,1,8.3.171a.782.782,0,0,1,.292.609v7.81a.781.781,0,0,1-.781.781" transform="translate(4.686 0)" fill=""/>
      <path id="Path_4373" data-name="Path 4373" d="M.781,6.248a.781.781,0,0,1,0-1.562,1.562,1.562,0,0,0,0-3.124A.781.781,0,0,1,.781,0a3.124,3.124,0,0,1,0,6.248" transform="translate(11.715 1.562)" fill=""/>
    </g>
  </g>
</svg>
