<svg xmlns="http://www.w3.org/2000/svg" width="12.438" height="15.991" viewBox="0 0 12.438 15.991">
  <g id="icon-person" transform="translate(6210.723 391.218)">
    <g id="Group_3763" data-name="Group 3763" transform="translate(-6208.058 -391.218)">
      <path id="Path_4806" data-name="Path 4806" d="M1163.554,212.107a3.554,3.554,0,1,1,3.554-3.554A3.557,3.557,0,0,1,1163.554,212.107Zm0-5.33a1.777,1.777,0,1,0,1.777,1.777A1.779,1.779,0,0,0,1163.554,206.777Z" transform="translate(-1160 -205)" />
    </g>
    <g id="Group_3764" data-name="Group 3764" transform="translate(-6210.723 -383.223)">
      <path id="Path_4807" data-name="Path 4807" d="M1168.549,222a.888.888,0,0,1-.888-.888v-2.665a2.668,2.668,0,0,0-2.665-2.665h-3.554a2.668,2.668,0,0,0-2.665,2.665v2.665a.888.888,0,0,1-1.777,0v-2.665a4.447,4.447,0,0,1,4.442-4.442H1165a4.447,4.447,0,0,1,4.442,4.442v2.665A.888.888,0,0,1,1168.549,222Z" transform="translate(-1157 -214)" />
    </g>
  </g>
</svg>
