<svg id="Group_4684" data-name="Group 4684" xmlns="http://www.w3.org/2000/svg" xmlns:xlink="http://www.w3.org/1999/xlink" width="16.27" height="16.263" viewBox="0 0 16.27 16.263">
  <defs>
    <clipPath id="clip-path">
      <rect id="Rectangle_184" data-name="Rectangle 184" width="16.27" height="16.263"/>
    </clipPath>
  </defs>
  <g id="Group_2999" data-name="Group 2999">
    <g id="Group_130" data-name="Group 130" transform="translate(0 0)" clip-path="url(#clip-path)">
      <path id="Path_120" data-name="Path 120" d="M8.107,16.262a.908.908,0,0,1-.585-.213C1.335,10.807-.944,6.815.349,3.483.632,2.737,1.732.3,4.074.025A4.652,4.652,0,0,1,8.151,1.957,4.689,4.689,0,0,1,12.21.071c2.419.283,3.528,2.842,3.726,3.353,1.276,3.286-1.095,7.415-7.246,12.625a.9.9,0,0,1-.584.213" transform="translate(0 0)"/>
    </g>
  </g>
</svg>
