<svg xmlns="http://www.w3.org/2000/svg" width="14.213" height="15.793" viewBox="0 0 14.213 15.793">
  <g id="icon-address" transform="translate(6066.036 1076.189)">
    <path id="Path_4432" data-name="Path 4432" d="M12.265,15.793h-7.9A2.372,2.372,0,0,1,2,13.424V2.369A2.372,2.372,0,0,1,4.369,0h7.9a2.372,2.372,0,0,1,2.369,2.369V13.424a2.372,2.372,0,0,1-2.369,2.369M4.369,1.579a.791.791,0,0,0-.79.79V13.424a.791.791,0,0,0,.79.79h7.9a.791.791,0,0,0,.79-.79V2.369a.791.791,0,0,0-.79-.79Z" transform="translate(-6066.457 -1076.189)" fill=""/>
    <path id="Path_4433" data-name="Path 4433" d="M11.738,6.579H7.79A.79.79,0,1,1,7.79,5h3.948a.79.79,0,0,1,0,1.579" transform="translate(-6067.509 -1077.241)" fill=""/>
    <path id="Path_4434" data-name="Path 4434" d="M11.738,10.579H7.79A.79.79,0,1,1,7.79,9h3.948a.79.79,0,0,1,0,1.579" transform="translate(-6067.509 -1078.083)" fill=""/>
    <path id="Path_4435" data-name="Path 4435" d="M10.159,14.579H7.79A.79.79,0,1,1,7.79,13h2.369a.79.79,0,1,1,0,1.579" transform="translate(-6067.509 -1078.924)" fill=""/>
    <path id="Path_4436" data-name="Path 4436" d="M3.159,6.579H.79A.79.79,0,1,1,.79,5H3.159a.79.79,0,1,1,0,1.579" transform="translate(-6066.036 -1077.241)" fill=""/>
    <path id="Path_4437" data-name="Path 4437" d="M3.159,14.579H.79A.79.79,0,0,1,.79,13H3.159a.79.79,0,0,1,0,1.579" transform="translate(-6066.036 -1078.924)" fill=""/>
  </g>
</svg>
