<svg width="15.128" height="15.126" viewBox="0 0 513 513" xmlns="http://www.w3.org/2000/svg">
<path fill-rule="evenodd" clip-rule="evenodd" d="M256.5 513C398.161 513 513 398.161 513 256.5C513 114.839 398.161 0 256.5 0C114.839 0 0 114.839 0 256.5C0 398.161 114.839 513 256.5 513ZM377.5 215.5H335.679C326.012 200.167 306.5 174 260.679 173C202.908 171.739 170 213 170.5 258.5C171 304 204.253 337.84 254.178 342.5C291.678 346 324.345 317.5 334.678 301H375.5C369.833 317.833 347.1 355.7 307.5 372.5V425H270.178V382.5H244V425H206.678V372.5C180.345 359.333 128.578 317 132.178 253C135.778 189 185.845 152.667 209.178 142V89H248V131H273.678V89H312L310.5 142C329.5 151 366.5 179.5 377.5 215.5Z" fill=""/>
</svg>
