<svg xmlns="http://www.w3.org/2000/svg" width="16.008" height="16" viewBox="0 0 16.008 16">
  <path id="icon-fave" d="M7.976,16a.893.893,0,0,1-.575-.21C1.314,10.633-.929,6.7.343,3.427.622,2.693,1.7.3,4.008.025a4.577,4.577,0,0,1,4.012,1.9A4.613,4.613,0,0,1,12.013.07c2.38.278,3.471,2.8,3.666,3.3C16.934,6.6,14.6,10.664,8.55,15.79a.889.889,0,0,1-.574.21M4.428,1.778a1.805,1.805,0,0,0-.209.012c-1.375.164-2.13,2.048-2.212,2.263C1.1,6.385,3.112,9.7,7.976,13.94c4.911-4.275,6.945-7.612,6.046-9.927-.033-.085-.795-2.012-2.215-2.178A3.392,3.392,0,0,0,8.795,3.95a.89.89,0,0,1-.786.473H8a.889.889,0,0,1-.785-.482A3.526,3.526,0,0,0,4.428,1.778" transform="translate(0)" fill=""/>
</svg>
