<svg id="Group_4967" data-name="Group 4967" xmlns="http://www.w3.org/2000/svg" width="16.275" height="12.189" viewBox="0 0 16.275 12.189">
  <g id="Group_4968" data-name="Group 4968">
    <path id="Path_5538" data-name="Path 5538" d="M12.069,12.137a4.069,4.069,0,1,1,4.069-4.069,4.073,4.073,0,0,1-4.069,4.069m0-6.1A2.034,2.034,0,1,0,14.1,8.069a2.036,2.036,0,0,0-2.034-2.034" transform="translate(-3.931 -1.966)" fill="#006fff"/>
    <path id="Path_5540" data-name="Path 5540" d="M1.017,4.069A1.018,1.018,0,0,1,0,3.052V1.017A1.018,1.018,0,0,1,1.017,0H3.052a1.017,1.017,0,1,1,0,2.034H2.034V3.052A1.018,1.018,0,0,1,1.017,4.069" fill="#006fff"/>
    <path id="Path_5541" data-name="Path 5541" d="M3.052,18.069H1.017A1.018,1.018,0,0,1,0,17.052V15.017a1.017,1.017,0,1,1,2.034,0v1.017H3.052a1.017,1.017,0,1,1,0,2.034" transform="translate(0 -5.88)" fill="#006fff"/>
    <path id="Path_5542" data-name="Path 5542" d="M27.052,4.069a1.018,1.018,0,0,1-1.017-1.017V2.034H25.017a1.017,1.017,0,1,1,0-2.034h2.034a1.018,1.018,0,0,1,1.017,1.017V3.052a1.018,1.018,0,0,1-1.017,1.017" transform="translate(-11.794)" fill="#006fff"/>
    <path id="Path_5543" data-name="Path 5543" d="M27.052,18.069H25.017a1.017,1.017,0,1,1,0-2.034h1.017V15.017a1.017,1.017,0,1,1,2.034,0v2.034a1.018,1.018,0,0,1-1.017,1.017" transform="translate(-11.794 -5.88)" fill="#006fff"/>
  </g>
</svg>
