<svg xmlns="http://www.w3.org/2000/svg" width="36" height="37" viewBox="0 0 36 37">
  <g id="Group_3100" data-name="Group 3100" transform="translate(-0.095 0.296)">
    <rect id="Rectangle_1095" data-name="Rectangle 1095" width="36" height="37" rx="4" transform="translate(0.095 -0.296)" fill="#fff"/>
    <path id="Icon_awesome-instagram" data-name="Icon awesome-instagram" d="M9.071,6.658a4.652,4.652,0,1,0,4.652,4.652A4.645,4.645,0,0,0,9.071,6.658Zm0,7.677A3.025,3.025,0,1,1,12.1,11.31,3.03,3.03,0,0,1,9.071,14.335ZM15,6.468a1.085,1.085,0,1,1-1.085-1.085A1.083,1.083,0,0,1,15,6.468Zm3.081,1.1a5.37,5.37,0,0,0-1.466-3.8,5.405,5.405,0,0,0-3.8-1.466c-1.5-.085-5.988-.085-7.486,0a5.4,5.4,0,0,0-3.8,1.462,5.388,5.388,0,0,0-1.466,3.8c-.085,1.5-.085,5.988,0,7.487a5.37,5.37,0,0,0,1.466,3.8,5.412,5.412,0,0,0,3.8,1.466c1.5.085,5.988.085,7.486,0a5.37,5.37,0,0,0,3.8-1.466,5.405,5.405,0,0,0,1.466-3.8c.085-1.5.085-5.984,0-7.483Zm-1.935,9.09a3.062,3.062,0,0,1-1.725,1.725c-1.194.474-4.029.364-5.349.364s-4.158.105-5.349-.364A3.062,3.062,0,0,1,2,16.659c-.474-1.194-.364-4.029-.364-5.349S1.528,7.152,2,5.962A3.062,3.062,0,0,1,3.723,4.237c1.194-.474,4.029-.364,5.349-.364s4.158-.105,5.349.364a3.062,3.062,0,0,1,1.725,1.725c.474,1.194.364,4.029.364,5.349S16.619,15.469,16.145,16.659Z" transform="translate(9.5 7.433)" fill="#006fff"/>
  </g>
</svg>
