<svg id="Group_4791" data-name="Group 4791" xmlns="http://www.w3.org/2000/svg" width="12.625" height="12.625" viewBox="0 0 12.625 12.625">
  <g id="Group_4787" data-name="Group 4787">
    <path id="Path_5420" data-name="Path 5420" d="M10.521,14.416H2.1a2.107,2.107,0,0,1-2.1-2.1V8.1A2.107,2.107,0,0,1,2.1,6h8.416a2.107,2.107,0,0,1,2.1,2.1v4.208a2.107,2.107,0,0,1-2.1,2.1M2.1,7.4a.7.7,0,0,0-.7.7v4.208a.7.7,0,0,0,.7.7h8.416a.7.7,0,0,0,.7-.7V8.1a.7.7,0,0,0-.7-.7Z" transform="translate(0 -1.792)" fill="#006fff"/>
    <path id="Path_5421" data-name="Path 5421" d="M11.118,5.611a.7.7,0,0,1-.7-.7v-1.4a2.107,2.107,0,0,0-2.1-2.1H5.507a2.107,2.107,0,0,0-2.1,2.1v1.4a.7.7,0,0,1-1.4,0v-1.4A3.511,3.511,0,0,1,5.507,0H8.312a3.511,3.511,0,0,1,3.507,3.507v1.4a.7.7,0,0,1-.7.7" transform="translate(-0.597)" fill="#006fff"/>
    <path id="Path_5422" data-name="Path 5422" d="M9.1,11.4H7.7a.7.7,0,0,1,0-1.4H9.1a.7.7,0,1,1,0,1.4" transform="translate(-2.09 -2.986)" fill="#006fff"/>
    <path id="Path_5423" data-name="Path 5423" d="M8.7,12.805a.7.7,0,0,1-.7-.7V10.7a.7.7,0,1,1,1.4,0v1.4a.7.7,0,0,1-.7.7" transform="translate(-2.389 -2.986)" fill="#006fff"/>
  </g>
</svg>
